<svg xmlns="http://www.w3.org/2000/svg" xmlns:xlink="http://www.w3.org/1999/xlink" width="500" zoomAndPan="magnify" viewBox="0 0 375 374.999991" height="500" preserveAspectRatio="xMidYMid meet" version="1.0"><defs><g/><clipPath id="id1"><path d="M 223.65625 139.277344 L 300.15625 139.277344 L 300.15625 183.527344 L 223.65625 183.527344 Z M 223.65625 139.277344 " clip-rule="nonzero"/></clipPath><clipPath id="id2"><path d="M 250 169 L 261 169 L 261 183.527344 L 250 183.527344 Z M 250 169 " clip-rule="nonzero"/></clipPath></defs><g fill="#3b82f6" fill-opacity="1"><g transform="translate(63.380613, 188.606954)"><g><path d="M -1.9375 11.703125 C -1.75 11.515625 -1.472656 11.203125 -1.109375 10.765625 C -0.742188 10.328125 -0.351562 9.566406 0.0625 8.484375 C 0.476562 7.398438 0.875 5.867188 1.25 3.890625 C 1.632812 1.921875 1.925781 -0.71875 2.125 -4.03125 C 2.226562 -5.800781 2.375 -8.050781 2.5625 -10.78125 C 2.757812 -13.519531 2.988281 -16.445312 3.25 -19.5625 C 3.507812 -22.675781 3.757812 -25.878906 4 -29.171875 C 4.25 -32.472656 4.503906 -35.617188 4.765625 -38.609375 C 5.023438 -41.597656 5.25 -44.296875 5.4375 -46.703125 C 5.632812 -49.117188 5.800781 -51.003906 5.9375 -52.359375 C 5.070312 -51.566406 4.242188 -50.707031 3.453125 -49.78125 C 2.765625 -48.957031 2.035156 -48.035156 1.265625 -47.015625 C 0.492188 -46.003906 -0.242188 -44.960938 -0.953125 -43.890625 C -1.722656 -44.335938 -2.34375 -44.863281 -2.8125 -45.46875 C -3.082031 -45.726562 -3.328125 -46.023438 -3.546875 -46.359375 C -3.984375 -47.078125 -4.273438 -47.84375 -4.421875 -48.65625 C -4.578125 -49.476562 -4.09375 -50.441406 -2.96875 -51.546875 C -2.382812 -52.128906 -1.492188 -52.976562 -0.296875 -54.09375 C 0.898438 -55.207031 2.421875 -56.367188 4.265625 -57.578125 C 6.117188 -58.785156 8.320312 -59.9375 10.875 -61.03125 C 13.425781 -62.132812 16.316406 -62.976562 19.546875 -63.5625 C 22.773438 -64.144531 25.492188 -63.972656 27.703125 -63.046875 C 29.910156 -62.117188 31.703125 -60.828125 33.078125 -59.171875 C 34.460938 -57.515625 35.492188 -55.691406 36.171875 -53.703125 C 36.847656 -51.710938 37.253906 -49.929688 37.390625 -48.359375 C 37.597656 -45.441406 37.210938 -42.273438 36.234375 -38.859375 C 35.265625 -35.453125 33.660156 -32.1875 31.421875 -29.0625 C 29.179688 -25.9375 26.28125 -23.097656 22.71875 -20.546875 C 19.15625 -17.992188 14.882812 -16.132812 9.90625 -14.96875 C 9.851562 -12.945312 9.804688 -10.875 9.765625 -8.75 C 9.722656 -6.625 9.648438 -4.53125 9.546875 -2.46875 C 9.453125 -0.414062 9.3125 1.507812 9.125 3.3125 C 8.945312 5.113281 8.71875 6.675781 8.4375 8 C 8.164062 9.425781 7.6875 10.609375 7 11.546875 C 6.320312 12.492188 5.085938 13.128906 3.296875 13.453125 C 2.378906 13.617188 1.476562 13.539062 0.59375 13.21875 C -0.28125 12.90625 -1.125 12.398438 -1.9375 11.703125 Z M 9.9375 -26.65625 C 9.9375 -25.800781 9.9375 -24.695312 9.9375 -23.34375 C 9.945312 -22 9.953125 -20.476562 9.953125 -18.78125 C 11.285156 -19.25 12.75 -19.898438 14.34375 -20.734375 C 15.9375 -21.578125 17.492188 -22.613281 19.015625 -23.84375 C 20.546875 -25.070312 22 -26.484375 23.375 -28.078125 C 24.757812 -29.679688 25.960938 -31.460938 26.984375 -33.421875 C 28.003906 -35.378906 28.765625 -37.523438 29.265625 -39.859375 C 29.773438 -42.203125 29.910156 -44.734375 29.671875 -47.453125 C 29.472656 -50.054688 28.945312 -52.164062 28.09375 -53.78125 C 27.25 -55.40625 26.21875 -56.648438 25 -57.515625 C 23.789062 -58.378906 22.476562 -58.910156 21.0625 -59.109375 C 19.65625 -59.304688 18.285156 -59.285156 16.953125 -59.046875 C 15.671875 -58.804688 14.445312 -58.394531 13.28125 -57.8125 C 12.113281 -57.238281 10.96875 -56.554688 9.84375 -55.765625 C 10.007812 -55.742188 10.207031 -55.648438 10.4375 -55.484375 C 10.8125 -55.234375 11.128906 -54.835938 11.390625 -54.296875 C 11.054688 -49.097656 10.789062 -44.765625 10.59375 -41.296875 C 10.394531 -37.828125 10.257812 -35 10.1875 -32.8125 C 10.070312 -30.25 9.988281 -28.195312 9.9375 -26.65625 Z M 9.9375 -26.65625 "/></g></g></g><g fill="#3b82f6" fill-opacity="1"><g transform="translate(106.88918, 180.738006)"><g><path d="M 36.671875 -22.421875 C 36.140625 -21.273438 35.445312 -19.84375 34.59375 -18.125 C 33.738281 -16.40625 32.84375 -14.679688 31.90625 -12.953125 C 30.976562 -11.222656 30.050781 -9.625 29.125 -8.15625 C 28.195312 -6.695312 27.394531 -5.644531 26.71875 -5 C 26.269531 -4.59375 25.726562 -4.226562 25.09375 -3.90625 C 24.46875 -3.582031 23.8125 -3.332031 23.125 -3.15625 C 22.4375 -2.976562 21.773438 -2.894531 21.140625 -2.90625 C 20.503906 -2.925781 19.929688 -3.046875 19.421875 -3.265625 C 18.890625 -3.546875 18.410156 -3.992188 17.984375 -4.609375 C 17.617188 -5.117188 17.238281 -5.8125 16.84375 -6.6875 C 16.445312 -7.570312 16.148438 -8.710938 15.953125 -10.109375 C 15.097656 -7.835938 14.023438 -6.015625 12.734375 -4.640625 C 11.453125 -3.265625 10.191406 -2.203125 8.953125 -1.453125 C 7.515625 -0.617188 6.035156 -0.0078125 4.515625 0.375 C 3.796875 0.507812 2.976562 0.40625 2.0625 0.0625 C 1.15625 -0.28125 0.328125 -0.921875 -0.421875 -1.859375 C -1.171875 -2.804688 -1.773438 -4.097656 -2.234375 -5.734375 C -2.691406 -7.378906 -2.84375 -9.410156 -2.6875 -11.828125 C -2.539062 -15.078125 -1.914062 -18.125 -0.8125 -20.96875 C 0.289062 -23.820312 1.597656 -26.320312 3.109375 -28.46875 C 4.628906 -30.625 6.203125 -32.320312 7.828125 -33.5625 C 9.453125 -34.8125 10.859375 -35.488281 12.046875 -35.59375 C 13.484375 -35.59375 14.691406 -35.390625 15.671875 -34.984375 C 16.484375 -34.597656 17.09375 -33.925781 17.5 -32.96875 C 17.90625 -32.019531 17.722656 -30.625 16.953125 -28.78125 C 17.640625 -29.070312 18.21875 -29.285156 18.6875 -29.421875 C 19.164062 -29.566406 19.535156 -29.660156 19.796875 -29.703125 C 20.097656 -29.753906 20.304688 -29.765625 20.421875 -29.734375 C 20.492188 -29.640625 20.554688 -29.425781 20.609375 -29.09375 C 20.671875 -28.757812 20.703125 -28.144531 20.703125 -27.25 C 20.710938 -26.351562 20.695312 -25.128906 20.65625 -23.578125 C 20.613281 -22.035156 20.550781 -20.039062 20.46875 -17.59375 C 20.445312 -17.113281 20.4375 -16.675781 20.4375 -16.28125 C 20.4375 -15.882812 20.429688 -15.484375 20.421875 -15.078125 C 20.410156 -14.679688 20.398438 -14.21875 20.390625 -13.6875 C 20.378906 -13.15625 20.363281 -12.492188 20.34375 -11.703125 C 20.375 -11.234375 20.453125 -10.726562 20.578125 -10.1875 C 20.703125 -9.65625 20.882812 -9.171875 21.125 -8.734375 C 21.363281 -8.304688 21.675781 -7.984375 22.0625 -7.765625 C 22.445312 -7.546875 22.945312 -7.488281 23.5625 -7.59375 C 24.070312 -7.6875 24.675781 -8.128906 25.375 -8.921875 C 26.082031 -9.710938 26.804688 -10.691406 27.546875 -11.859375 C 28.296875 -13.023438 29.0625 -14.300781 29.84375 -15.6875 C 30.625 -17.070312 31.347656 -18.40625 32.015625 -19.6875 C 32.679688 -20.96875 33.28125 -22.109375 33.8125 -23.109375 C 34.34375 -24.109375 34.722656 -24.835938 34.953125 -25.296875 C 35.285156 -25.828125 35.648438 -26.164062 36.046875 -26.3125 C 36.441406 -26.46875 36.769531 -26.410156 37.03125 -26.140625 C 37.289062 -25.878906 37.410156 -25.425781 37.390625 -24.78125 C 37.378906 -24.144531 37.140625 -23.359375 36.671875 -22.421875 Z M 14.75 -14.984375 C 14.820312 -16.046875 14.910156 -17.300781 15.015625 -18.75 C 15.128906 -20.207031 15.195312 -21.597656 15.21875 -22.921875 C 15.25 -24.253906 15.25 -25.351562 15.21875 -26.21875 C 15.195312 -27.082031 15.085938 -27.46875 14.890625 -27.375 C 14.640625 -27.28125 14.375 -27.15625 14.09375 -27 C 13.851562 -26.851562 13.53125 -26.71875 13.125 -26.59375 C 12.726562 -26.46875 12.332031 -26.316406 11.9375 -26.140625 C 12.207031 -27.035156 12.328125 -27.757812 12.296875 -28.3125 C 12.273438 -28.863281 12.210938 -29.285156 12.109375 -29.578125 C 12.003906 -29.929688 11.851562 -30.195312 11.65625 -30.375 C 11.007812 -30.726562 10.085938 -30.175781 8.890625 -28.71875 C 7.703125 -27.257812 6.476562 -24.75 5.21875 -21.1875 C 4.6875 -19.71875 4.328125 -18.179688 4.140625 -16.578125 C 3.960938 -14.984375 3.898438 -13.503906 3.953125 -12.140625 C 4.015625 -10.785156 4.1875 -9.613281 4.46875 -8.625 C 4.757812 -7.644531 5.082031 -7.03125 5.4375 -6.78125 C 6.101562 -6.320312 6.789062 -6.164062 7.5 -6.3125 C 8.21875 -6.46875 8.914062 -6.804688 9.59375 -7.328125 C 10.269531 -7.847656 10.921875 -8.484375 11.546875 -9.234375 C 12.179688 -9.984375 12.734375 -10.742188 13.203125 -11.515625 C 13.671875 -12.296875 14.046875 -13 14.328125 -13.625 C 14.617188 -14.257812 14.757812 -14.710938 14.75 -14.984375 Z M 14.75 -14.984375 "/></g></g></g><g fill="#3b82f6" fill-opacity="1"><g transform="translate(141.173316, 174.537386)"><g><path d="M 0.40625 33.828125 C 0.0078125 33.734375 -0.390625 33.570312 -0.796875 33.34375 C -1.160156 33.132812 -1.53125 32.863281 -1.90625 32.53125 C -2.28125 32.207031 -2.617188 31.78125 -2.921875 31.25 C -2.484375 25.507812 -2.128906 20.519531 -1.859375 16.28125 C -1.585938 12.050781 -1.34375 8.515625 -1.125 5.671875 C -0.925781 2.359375 -0.738281 -0.421875 -0.5625 -2.671875 C -0.425781 -4.816406 -0.285156 -6.960938 -0.140625 -9.109375 C -0.046875 -10.972656 0.0507812 -12.972656 0.15625 -15.109375 C 0.269531 -17.253906 0.375 -19.257812 0.46875 -21.125 C 0.613281 -23.21875 0.628906 -24.875 0.515625 -26.09375 C 0.410156 -27.320312 -0.15625 -28.289062 -1.1875 -29 C -0.664062 -29.625 -0.113281 -30.132812 0.46875 -30.53125 C 1.0625 -30.925781 1.601562 -31.222656 2.09375 -31.421875 C 2.625 -31.679688 3.175781 -31.835938 3.75 -31.890625 C 5.15625 -32.035156 6.09375 -31.75 6.5625 -31.03125 C 7.039062 -30.320312 7.304688 -29.101562 7.359375 -27.375 C 7.359375 -27.101562 7.359375 -26.875 7.359375 -26.6875 C 7.367188 -26.507812 7.390625 -26.316406 7.421875 -26.109375 C 7.992188 -27.066406 8.644531 -28.003906 9.375 -28.921875 C 10.101562 -29.847656 10.859375 -30.695312 11.640625 -31.46875 C 12.429688 -32.25 13.265625 -32.914062 14.140625 -33.46875 C 15.023438 -34.03125 15.90625 -34.390625 16.78125 -34.546875 C 17.957031 -34.765625 18.96875 -34.644531 19.8125 -34.1875 C 20.664062 -33.726562 21.382812 -33.050781 21.96875 -32.15625 C 22.550781 -31.257812 23.003906 -30.21875 23.328125 -29.03125 C 23.648438 -27.84375 23.890625 -26.65625 24.046875 -25.46875 C 24.234375 -24.175781 24.257812 -22.773438 24.125 -21.265625 C 24 -19.765625 23.738281 -18.210938 23.34375 -16.609375 C 22.957031 -15.003906 22.457031 -13.40625 21.84375 -11.8125 C 21.226562 -10.21875 20.546875 -8.71875 19.796875 -7.3125 C 20.003906 -7.289062 20.132812 -7.269531 20.1875 -7.25 C 20.25 -7.238281 20.28125 -7.21875 20.28125 -7.1875 C 20.289062 -7.164062 20.335938 -7.148438 20.421875 -7.140625 C 20.503906 -7.140625 20.675781 -7.160156 20.9375 -7.203125 C 22.113281 -7.421875 23.257812 -7.945312 24.375 -8.78125 C 25.488281 -9.613281 26.546875 -10.609375 27.546875 -11.765625 C 28.554688 -12.929688 29.507812 -14.175781 30.40625 -15.5 C 31.3125 -16.832031 32.117188 -18.101562 32.828125 -19.3125 C 33.535156 -20.53125 34.117188 -21.613281 34.578125 -22.5625 C 35.035156 -23.519531 35.390625 -24.207031 35.640625 -24.625 C 35.953125 -25.207031 36.269531 -25.617188 36.59375 -25.859375 C 36.925781 -26.109375 37.207031 -26.175781 37.4375 -26.0625 C 37.664062 -25.945312 37.820312 -25.671875 37.90625 -25.234375 C 37.988281 -24.796875 37.9375 -24.21875 37.75 -23.5 C 37.625 -23 37.320312 -22.175781 36.84375 -21.03125 C 36.363281 -19.882812 35.75 -18.582031 35 -17.125 C 34.257812 -15.664062 33.382812 -14.128906 32.375 -12.515625 C 31.375 -10.910156 30.28125 -9.421875 29.09375 -8.046875 C 27.914062 -6.671875 26.664062 -5.476562 25.34375 -4.46875 C 24.019531 -3.457031 22.664062 -2.828125 21.28125 -2.578125 C 20.613281 -2.453125 20.066406 -2.378906 19.640625 -2.359375 C 19.222656 -2.335938 18.863281 -2.363281 18.5625 -2.4375 C 18.257812 -2.519531 17.96875 -2.597656 17.6875 -2.671875 C 17.414062 -2.753906 17.085938 -2.84375 16.703125 -2.9375 C 15.898438 -2.050781 15.046875 -1.328125 14.140625 -0.765625 C 13.242188 -0.203125 12.335938 0.160156 11.421875 0.328125 C 10.546875 0.484375 9.757812 0.472656 9.0625 0.296875 C 8.375 0.128906 7.78125 -0.15625 7.28125 -0.5625 C 6.78125 -0.976562 6.347656 -1.457031 5.984375 -2 C 5.628906 -2.539062 5.320312 -3.078125 5.0625 -3.609375 C 5.039062 -3.398438 5.03125 -3.210938 5.03125 -3.046875 C 5.039062 -2.890625 5.039062 -2.675781 5.03125 -2.40625 C 4.863281 0.15625 4.738281 3.113281 4.65625 6.46875 C 4.59375 9.332031 4.523438 12.820312 4.453125 16.9375 C 4.378906 21.050781 4.363281 25.722656 4.40625 30.953125 C 4.351562 32.398438 3.945312 33.296875 3.1875 33.640625 C 2.425781 33.984375 1.5 34.046875 0.40625 33.828125 Z M 5.84375 -16.390625 C 5.75 -15.460938 5.660156 -14.398438 5.578125 -13.203125 C 5.503906 -12.003906 5.4375 -10.570312 5.375 -8.90625 C 5.726562 -9.289062 6.144531 -9.601562 6.625 -9.84375 C 7.113281 -10.09375 7.613281 -10.265625 8.125 -10.359375 C 8.6875 -10.460938 9.457031 -10.296875 10.4375 -9.859375 C 11.414062 -9.429688 12.578125 -9 13.921875 -8.5625 C 14.523438 -9.613281 15.144531 -10.789062 15.78125 -12.09375 C 16.425781 -13.40625 16.984375 -14.738281 17.453125 -16.09375 C 17.921875 -17.445312 18.28125 -18.804688 18.53125 -20.171875 C 18.789062 -21.546875 18.84375 -22.828125 18.6875 -24.015625 C 18.507812 -25.578125 18.109375 -26.75 17.484375 -27.53125 C 16.867188 -28.320312 16.023438 -28.617188 14.953125 -28.421875 C 13.359375 -28.140625 11.796875 -26.894531 10.265625 -24.6875 C 8.734375 -22.476562 7.257812 -19.710938 5.84375 -16.390625 Z M 5.84375 -16.390625 "/></g></g></g><g fill="#3b82f6" fill-opacity="1"><g transform="translate(176.687376, 168.114323)"><g><path d="M 31.9375 -22.28125 C 30.800781 -19.75 29.453125 -17.242188 27.890625 -14.765625 C 26.328125 -12.296875 24.609375 -10.03125 22.734375 -7.96875 C 20.859375 -5.90625 18.867188 -4.15625 16.765625 -2.71875 C 14.671875 -1.28125 12.550781 -0.367188 10.40625 0.015625 C 9.269531 0.222656 8 0.175781 6.59375 -0.125 C 5.195312 -0.425781 3.859375 -1.039062 2.578125 -1.96875 C 1.304688 -2.90625 0.1875 -4.210938 -0.78125 -5.890625 C -1.75 -7.566406 -2.335938 -9.707031 -2.546875 -12.3125 C -2.722656 -14.457031 -2.46875 -16.796875 -1.78125 -19.328125 C -1.101562 -21.859375 -0.132812 -24.242188 1.125 -26.484375 C 2.394531 -28.722656 3.921875 -30.664062 5.703125 -32.3125 C 7.492188 -33.96875 9.414062 -34.976562 11.46875 -35.34375 C 13.414062 -35.695312 14.910156 -35.460938 15.953125 -34.640625 C 17.003906 -33.828125 17.609375 -32.691406 17.765625 -31.234375 C 17.898438 -29.617188 17.71875 -28.078125 17.21875 -26.609375 C 16.71875 -25.140625 16.050781 -23.773438 15.21875 -22.515625 C 14.382812 -21.253906 13.46875 -20.082031 12.46875 -19 C 11.476562 -17.925781 10.535156 -16.941406 9.640625 -16.046875 C 8.648438 -15.066406 7.703125 -14.132812 6.796875 -13.25 C 5.898438 -12.375 5.125 -11.585938 4.46875 -10.890625 C 4.738281 -9.617188 5.15625 -8.582031 5.71875 -7.78125 C 6.289062 -6.988281 6.929688 -6.378906 7.640625 -5.953125 C 8.359375 -5.523438 9.132812 -5.265625 9.96875 -5.171875 C 10.8125 -5.085938 11.644531 -5.117188 12.46875 -5.265625 C 14.207031 -5.585938 15.925781 -6.46875 17.625 -7.90625 C 19.320312 -9.351562 20.9375 -11.023438 22.46875 -12.921875 C 24.007812 -14.816406 25.40625 -16.75 26.65625 -18.71875 C 27.914062 -20.6875 28.953125 -22.378906 29.765625 -23.796875 C 30.035156 -24.273438 30.359375 -24.585938 30.734375 -24.734375 C 31.109375 -24.878906 31.425781 -24.878906 31.6875 -24.734375 C 31.945312 -24.597656 32.113281 -24.3125 32.1875 -23.875 C 32.269531 -23.445312 32.1875 -22.914062 31.9375 -22.28125 Z M 10.109375 -30.5625 C 9.492188 -30.457031 8.816406 -30.019531 8.078125 -29.25 C 7.347656 -28.476562 6.675781 -27.441406 6.0625 -26.140625 C 5.445312 -24.847656 4.929688 -23.300781 4.515625 -21.5 C 4.109375 -19.707031 3.914062 -17.703125 3.9375 -15.484375 C 4.46875 -16.046875 5.050781 -16.632812 5.6875 -17.25 C 6.320312 -17.875 6.945312 -18.535156 7.5625 -19.234375 C 9.445312 -21.316406 10.710938 -23.078125 11.359375 -24.515625 C 12.003906 -25.953125 12.296875 -27.144531 12.234375 -28.09375 C 12.148438 -29.082031 11.914062 -29.765625 11.53125 -30.140625 C 11.144531 -30.523438 10.671875 -30.664062 10.109375 -30.5625 Z M 10.109375 -30.5625 "/></g></g></g><g fill="#3b82f6" fill-opacity="1"><g transform="translate(205.974945, 162.817381)"><g><path d="M -2.984375 0.140625 C -3.242188 0.773438 -3.570312 1.21875 -3.96875 1.46875 C -4.375 1.726562 -4.753906 1.820312 -5.109375 1.75 C -5.472656 1.6875 -5.742188 1.457031 -5.921875 1.0625 C -6.097656 0.675781 -6.085938 0.148438 -5.890625 -0.515625 C -5.785156 -0.859375 -5.5625 -1.613281 -5.21875 -2.78125 C -4.882812 -3.957031 -4.476562 -5.367188 -4 -7.015625 C -3.53125 -8.660156 -3.019531 -10.441406 -2.46875 -12.359375 C -1.914062 -14.285156 -1.390625 -16.113281 -0.890625 -17.84375 C -0.390625 -19.582031 0.078125 -21.140625 0.515625 -22.515625 C 0.960938 -23.890625 1.289062 -24.894531 1.5 -25.53125 C 0.84375 -25.9375 0.390625 -26.234375 0.140625 -26.421875 C -0.109375 -26.617188 -0.347656 -27.09375 -0.578125 -27.84375 C -0.804688 -28.488281 -0.8125 -29.382812 -0.59375 -30.53125 C -0.382812 -31.675781 -0.0390625 -32.804688 0.4375 -33.921875 C 0.925781 -35.046875 1.515625 -36.039062 2.203125 -36.90625 C 2.898438 -37.78125 3.632812 -38.285156 4.40625 -38.421875 C 5.832031 -38.679688 6.925781 -38.40625 7.6875 -37.59375 C 8.445312 -36.78125 8.960938 -35.894531 9.234375 -34.9375 C 9.460938 -34.289062 9.566406 -33.4375 9.546875 -32.375 C 9.523438 -31.3125 9.3125 -30.316406 8.90625 -29.390625 C 9.0625 -29.316406 9.28125 -29.238281 9.5625 -29.15625 C 9.851562 -29.082031 10.28125 -29.097656 10.84375 -29.203125 C 11.664062 -29.347656 12.226562 -29.5 12.53125 -29.65625 C 12.84375 -29.8125 13.359375 -29.957031 14.078125 -30.09375 C 14.953125 -30.25 15.707031 -30.160156 16.34375 -29.828125 C 16.988281 -29.503906 17.550781 -29.050781 18.03125 -28.46875 C 18.507812 -27.894531 18.90625 -27.25 19.21875 -26.53125 C 19.53125 -25.820312 19.765625 -25.164062 19.921875 -24.5625 C 20.304688 -23.3125 20.210938 -21.914062 19.640625 -20.375 C 19.078125 -18.84375 18.359375 -17.15625 17.484375 -15.3125 C 16.953125 -14.144531 16.441406 -12.859375 15.953125 -11.453125 C 15.460938 -10.046875 15.363281 -8.835938 15.65625 -7.828125 C 15.882812 -7.179688 16.160156 -6.675781 16.484375 -6.3125 C 16.816406 -5.945312 17.570312 -5.867188 18.75 -6.078125 C 19.625 -6.242188 20.523438 -6.738281 21.453125 -7.5625 C 22.390625 -8.394531 23.316406 -9.410156 24.234375 -10.609375 C 25.160156 -11.804688 26.050781 -13.101562 26.90625 -14.5 C 27.769531 -15.90625 28.554688 -17.269531 29.265625 -18.59375 C 29.984375 -19.914062 30.578125 -21.09375 31.046875 -22.125 C 31.523438 -23.164062 31.878906 -23.914062 32.109375 -24.375 C 32.296875 -24.84375 32.578125 -25.1875 32.953125 -25.40625 C 33.335938 -25.632812 33.695312 -25.703125 34.03125 -25.609375 C 34.375 -25.515625 34.625 -25.238281 34.78125 -24.78125 C 34.9375 -24.332031 34.851562 -23.679688 34.53125 -22.828125 C 34.320312 -22.265625 33.945312 -21.351562 33.40625 -20.09375 C 32.863281 -18.832031 32.191406 -17.414062 31.390625 -15.84375 C 30.585938 -14.269531 29.675781 -12.632812 28.65625 -10.9375 C 27.644531 -9.238281 26.546875 -7.660156 25.359375 -6.203125 C 24.171875 -4.742188 22.9375 -3.503906 21.65625 -2.484375 C 20.382812 -1.460938 19.109375 -0.835938 17.828125 -0.609375 C 16.492188 -0.367188 15.347656 -0.425781 14.390625 -0.78125 C 13.429688 -1.132812 12.613281 -1.632812 11.9375 -2.28125 C 11.257812 -2.925781 10.722656 -3.675781 10.328125 -4.53125 C 9.941406 -5.382812 9.703125 -6.203125 9.609375 -6.984375 C 9.554688 -7.609375 9.609375 -8.289062 9.765625 -9.03125 C 9.921875 -9.78125 10.125 -10.554688 10.375 -11.359375 C 10.625 -12.171875 10.898438 -12.988281 11.203125 -13.8125 C 11.503906 -14.632812 11.769531 -15.4375 12 -16.21875 C 12.601562 -17.863281 13.078125 -19.257812 13.421875 -20.40625 C 13.765625 -21.550781 13.875 -22.484375 13.75 -23.203125 C 13.664062 -23.660156 13.488281 -24.050781 13.21875 -24.375 C 12.945312 -24.695312 12.578125 -24.816406 12.109375 -24.734375 C 11.804688 -24.679688 11.59375 -24.628906 11.46875 -24.578125 C 11.34375 -24.523438 11.21875 -24.488281 11.09375 -24.46875 C 10.96875 -24.445312 10.789062 -24.398438 10.5625 -24.328125 C 10.332031 -24.265625 9.988281 -24.191406 9.53125 -24.109375 C 8.863281 -23.984375 8.28125 -23.984375 7.78125 -24.109375 C 7.28125 -24.234375 6.816406 -24.3125 6.390625 -24.34375 C 6.242188 -23.9375 5.921875 -23.082031 5.421875 -21.78125 C 4.921875 -20.476562 4.34375 -18.945312 3.6875 -17.1875 C 3.03125 -15.425781 2.332031 -13.578125 1.59375 -11.640625 C 0.851562 -9.703125 0.160156 -7.894531 -0.484375 -6.21875 C -1.128906 -4.539062 -1.675781 -3.117188 -2.125 -1.953125 C -2.582031 -0.785156 -2.867188 -0.0859375 -2.984375 0.140625 Z M -2.984375 0.140625 "/></g></g></g><g fill="#3b82f6" fill-opacity="1"><g transform="translate(237.946963, 157.034931)"><g/></g></g><g fill="#3b82f6" fill-opacity="1"><g transform="translate(260.008728, 153.044846)"><g/></g></g><g fill="#3b82f6" fill-opacity="1"><g transform="translate(282.070493, 149.054761)"><g/></g></g><g fill="#3b82f6" fill-opacity="1"><g transform="translate(112.219836, 258.277167)"><g/></g></g><g fill="#3b82f6" fill-opacity="1"><g transform="translate(134.279912, 254.287388)"><g><path d="M 37.640625 -20.546875 C 37.265625 -18.566406 36.769531 -16.617188 36.15625 -14.703125 C 35.550781 -12.796875 34.8125 -11.050781 33.9375 -9.46875 C 33.0625 -7.882812 32.054688 -6.5625 30.921875 -5.5 C 29.785156 -4.445312 28.472656 -3.789062 26.984375 -3.53125 C 24.578125 -3.09375 22.613281 -3.566406 21.09375 -4.953125 C 19.570312 -6.347656 18.367188 -8.1875 17.484375 -10.46875 C 16.960938 -9.257812 16.382812 -8.039062 15.75 -6.8125 C 15.125 -5.59375 14.425781 -4.488281 13.65625 -3.5 C 12.882812 -2.507812 12.054688 -1.671875 11.171875 -0.984375 C 10.285156 -0.296875 9.359375 0.132812 8.390625 0.3125 C 7.054688 0.550781 5.878906 0.472656 4.859375 0.078125 C 3.835938 -0.316406 2.9375 -0.960938 2.15625 -1.859375 C 1.382812 -2.753906 0.753906 -3.832031 0.265625 -5.09375 C -0.222656 -6.351562 -0.601562 -7.726562 -0.875 -9.21875 L -1.046875 -10.140625 C -1.390625 -12.035156 -1.585938 -14.007812 -1.640625 -16.0625 C -1.691406 -18.113281 -1.675781 -20.019531 -1.59375 -21.78125 C -1.519531 -23.539062 -1.390625 -25.082031 -1.203125 -26.40625 C -1.015625 -27.738281 -0.859375 -28.632812 -0.734375 -29.09375 C -0.460938 -29.664062 0.226562 -30.300781 1.34375 -31 C 2.457031 -31.707031 3.613281 -32.113281 4.8125 -32.21875 C 5.375 -32.28125 5.707031 -32.109375 5.8125 -31.703125 C 5.914062 -31.296875 5.945312 -30.769531 5.90625 -30.125 C 5.851562 -29.21875 5.726562 -27.847656 5.53125 -26.015625 C 5.332031 -24.179688 5.148438 -22.1875 4.984375 -20.03125 C 4.816406 -17.882812 4.707031 -15.773438 4.65625 -13.703125 C 4.613281 -11.628906 4.710938 -9.925781 4.953125 -8.59375 C 5.242188 -6.957031 5.710938 -5.828125 6.359375 -5.203125 C 7.003906 -4.578125 7.863281 -4.359375 8.9375 -4.546875 C 10.21875 -4.785156 11.507812 -5.765625 12.8125 -7.484375 C 14.113281 -9.203125 15.203125 -11.910156 16.078125 -15.609375 C 15.960938 -15.910156 15.878906 -16.210938 15.828125 -16.515625 C 15.773438 -16.828125 15.710938 -17.160156 15.640625 -17.515625 C 15.222656 -19.828125 14.914062 -22.046875 14.71875 -24.171875 C 14.519531 -26.304688 14.546875 -28.21875 14.796875 -29.90625 C 15.046875 -31.59375 15.5625 -32.984375 16.34375 -34.078125 C 17.125 -35.171875 18.28125 -35.851562 19.8125 -36.125 C 20.4375 -36.238281 20.984375 -36.148438 21.453125 -35.859375 C 21.929688 -35.578125 22.226562 -35.101562 22.34375 -34.4375 C 22.644531 -32.800781 22.488281 -30.378906 21.875 -27.171875 C 21.269531 -23.960938 20.492188 -20.425781 19.546875 -16.5625 C 19.441406 -16.320312 19.378906 -16.097656 19.359375 -15.890625 C 19.679688 -14.941406 20.054688 -13.945312 20.484375 -12.90625 C 20.910156 -11.875 21.410156 -10.945312 21.984375 -10.125 C 22.554688 -9.300781 23.175781 -8.644531 23.84375 -8.15625 C 24.519531 -7.675781 25.238281 -7.503906 26 -7.640625 C 27.132812 -7.847656 28.078125 -8.570312 28.828125 -9.8125 C 29.585938 -11.0625 30.195312 -12.519531 30.65625 -14.1875 C 31.113281 -15.863281 31.472656 -17.613281 31.734375 -19.4375 C 31.992188 -21.257812 32.15625 -22.859375 32.21875 -24.234375 C 31.957031 -24.785156 31.726562 -25.316406 31.53125 -25.828125 C 31.332031 -26.347656 31.171875 -26.96875 31.046875 -27.6875 C 30.753906 -29.269531 30.734375 -30.664062 30.984375 -31.875 C 31.242188 -33.09375 31.675781 -34.140625 32.28125 -35.015625 C 32.894531 -35.890625 33.59375 -36.582031 34.375 -37.09375 C 35.15625 -37.601562 35.90625 -37.925781 36.625 -38.0625 C 37.90625 -38.289062 38.644531 -37.84375 38.84375 -36.71875 C 38.988281 -35.894531 39.039062 -34.4375 39 -32.34375 C 38.96875 -30.25 38.796875 -27.847656 38.484375 -25.140625 C 39.472656 -24.890625 40.6875 -24.894531 42.125 -25.15625 C 43.457031 -25.394531 44.65625 -25.78125 45.71875 -26.3125 C 46.789062 -26.851562 47.742188 -27.46875 48.578125 -28.15625 C 49.410156 -28.84375 50.15625 -29.5625 50.8125 -30.3125 C 51.46875 -31.0625 52.101562 -31.785156 52.71875 -32.484375 C 53.207031 -32.984375 53.660156 -33.085938 54.078125 -32.796875 C 54.503906 -32.503906 54.5625 -31.9375 54.25 -31.09375 C 53.945312 -30.351562 53.375 -29.453125 52.53125 -28.390625 C 51.695312 -27.335938 50.644531 -26.285156 49.375 -25.234375 C 48.113281 -24.191406 46.671875 -23.25 45.046875 -22.40625 C 43.429688 -21.5625 41.675781 -20.96875 39.78125 -20.625 C 39.476562 -20.5625 39.140625 -20.519531 38.765625 -20.5 C 38.398438 -20.488281 38.023438 -20.503906 37.640625 -20.546875 Z M 37.640625 -20.546875 "/></g></g></g><g fill="#3b82f6" fill-opacity="1"><g transform="translate(185.168024, 245.083778)"><g><path d="M 20.546875 -16.328125 C 20.378906 -14.285156 20.015625 -12.34375 19.453125 -10.5 C 18.890625 -8.65625 18.117188 -7.003906 17.140625 -5.546875 C 16.160156 -4.097656 14.972656 -2.894531 13.578125 -1.9375 C 12.191406 -0.976562 10.601562 -0.335938 8.8125 -0.015625 C 6.707031 0.367188 4.972656 0.222656 3.609375 -0.453125 C 2.242188 -1.128906 1.144531 -2.082031 0.3125 -3.3125 C -0.519531 -4.539062 -1.144531 -5.9375 -1.5625 -7.5 C -1.976562 -9.070312 -2.3125 -10.550781 -2.5625 -11.9375 C -2.738281 -12.90625 -2.816406 -14 -2.796875 -15.21875 C -2.773438 -16.4375 -2.671875 -17.695312 -2.484375 -19 C -2.296875 -20.3125 -1.992188 -21.640625 -1.578125 -22.984375 C -1.160156 -24.328125 -0.609375 -25.585938 0.078125 -26.765625 C 0.234375 -27.703125 0.570312 -28.5625 1.09375 -29.34375 C 1.613281 -30.125 2.253906 -30.804688 3.015625 -31.390625 C 3.785156 -31.972656 4.632812 -32.46875 5.5625 -32.875 C 6.5 -33.289062 7.425781 -33.582031 8.34375 -33.75 C 8.5 -33.78125 8.644531 -33.78125 8.78125 -33.75 C 8.925781 -33.71875 9.078125 -33.691406 9.234375 -33.671875 C 9.910156 -33.734375 10.785156 -33.625 11.859375 -33.34375 C 12.941406 -33.0625 14.039062 -32.546875 15.15625 -31.796875 C 16.269531 -31.046875 17.285156 -30.023438 18.203125 -28.734375 C 19.128906 -27.453125 19.773438 -25.8125 20.140625 -23.8125 C 20.210938 -23.394531 20.28125 -22.882812 20.34375 -22.28125 C 20.40625 -21.6875 20.445312 -21.179688 20.46875 -20.765625 C 21.5625 -21.441406 22.6875 -22.226562 23.84375 -23.125 C 25.007812 -24.019531 26.125 -24.945312 27.1875 -25.90625 C 28.257812 -26.875 29.238281 -27.832031 30.125 -28.78125 C 31.007812 -29.738281 31.703125 -30.578125 32.203125 -31.296875 C 32.628906 -31.859375 33.019531 -32.195312 33.375 -32.3125 C 33.726562 -32.425781 34.003906 -32.367188 34.203125 -32.140625 C 34.398438 -31.910156 34.488281 -31.554688 34.46875 -31.078125 C 34.445312 -30.609375 34.257812 -30.050781 33.90625 -29.40625 C 33.707031 -29.039062 33.164062 -28.300781 32.28125 -27.1875 C 31.394531 -26.082031 30.332031 -24.859375 29.09375 -23.515625 C 27.851562 -22.179688 26.476562 -20.847656 24.96875 -19.515625 C 23.46875 -18.191406 21.992188 -17.128906 20.546875 -16.328125 Z M 5.4375 -25.671875 C 5.363281 -25.179688 5.375 -24.679688 5.46875 -24.171875 C 5.613281 -23.347656 5.820312 -22.5 6.09375 -21.625 C 6.363281 -20.75 6.765625 -19.988281 7.296875 -19.34375 C 7.828125 -18.695312 8.585938 -18.210938 9.578125 -17.890625 C 10.566406 -17.566406 11.851562 -17.550781 13.4375 -17.84375 C 13.695312 -17.882812 13.953125 -17.9375 14.203125 -18 C 14.453125 -18.070312 14.707031 -18.160156 14.96875 -18.265625 C 14.988281 -18.953125 15.015625 -19.578125 15.046875 -20.140625 C 15.078125 -20.710938 15.054688 -21.203125 14.984375 -21.609375 C 14.910156 -22.597656 14.726562 -23.59375 14.4375 -24.59375 C 14.15625 -25.601562 13.796875 -26.503906 13.359375 -27.296875 C 12.921875 -28.097656 12.4375 -28.726562 11.90625 -29.1875 C 11.375 -29.644531 10.800781 -29.816406 10.1875 -29.703125 C 9.21875 -29.523438 8.332031 -29.085938 7.53125 -28.390625 C 6.726562 -27.691406 6.03125 -26.785156 5.4375 -25.671875 Z M 2.96875 -11.25 C 3.132812 -10.332031 3.347656 -9.429688 3.609375 -8.546875 C 3.878906 -7.671875 4.226562 -6.914062 4.65625 -6.28125 C 5.09375 -5.644531 5.601562 -5.15625 6.1875 -4.8125 C 6.78125 -4.46875 7.488281 -4.367188 8.3125 -4.515625 C 9.226562 -4.679688 10.03125 -5.050781 10.71875 -5.625 C 11.414062 -6.207031 12.007812 -6.894531 12.5 -7.6875 C 12.988281 -8.488281 13.394531 -9.382812 13.71875 -10.375 C 14.050781 -11.363281 14.304688 -12.378906 14.484375 -13.421875 C 14.140625 -13.296875 13.800781 -13.191406 13.46875 -13.109375 C 13.144531 -13.023438 12.773438 -12.945312 12.359375 -12.875 C 10.410156 -12.519531 8.628906 -12.789062 7.015625 -13.6875 C 5.398438 -14.59375 4.046875 -15.875 2.953125 -17.53125 C 2.828125 -16.394531 2.753906 -15.296875 2.734375 -14.234375 C 2.722656 -13.171875 2.800781 -12.175781 2.96875 -11.25 Z M 2.96875 -11.25 "/></g></g></g><g fill="#3b82f6" fill-opacity="1"><g transform="translate(216.146738, 239.480976)"><g><path d="M -2.984375 0.140625 C -3.242188 0.773438 -3.570312 1.21875 -3.96875 1.46875 C -4.375 1.726562 -4.753906 1.820312 -5.109375 1.75 C -5.472656 1.6875 -5.742188 1.457031 -5.921875 1.0625 C -6.097656 0.675781 -6.085938 0.148438 -5.890625 -0.515625 C -5.785156 -0.859375 -5.5625 -1.613281 -5.21875 -2.78125 C -4.882812 -3.957031 -4.476562 -5.367188 -4 -7.015625 C -3.53125 -8.660156 -3.019531 -10.441406 -2.46875 -12.359375 C -1.914062 -14.285156 -1.390625 -16.113281 -0.890625 -17.84375 C -0.390625 -19.582031 0.078125 -21.140625 0.515625 -22.515625 C 0.960938 -23.890625 1.289062 -24.894531 1.5 -25.53125 C 0.84375 -25.9375 0.390625 -26.234375 0.140625 -26.421875 C -0.109375 -26.617188 -0.347656 -27.09375 -0.578125 -27.84375 C -0.804688 -28.488281 -0.8125 -29.382812 -0.59375 -30.53125 C -0.382812 -31.675781 -0.0390625 -32.804688 0.4375 -33.921875 C 0.925781 -35.046875 1.515625 -36.039062 2.203125 -36.90625 C 2.898438 -37.78125 3.632812 -38.285156 4.40625 -38.421875 C 5.832031 -38.679688 6.925781 -38.40625 7.6875 -37.59375 C 8.445312 -36.78125 8.960938 -35.894531 9.234375 -34.9375 C 9.460938 -34.289062 9.566406 -33.4375 9.546875 -32.375 C 9.523438 -31.3125 9.3125 -30.316406 8.90625 -29.390625 C 9.0625 -29.316406 9.28125 -29.238281 9.5625 -29.15625 C 9.851562 -29.082031 10.28125 -29.097656 10.84375 -29.203125 C 11.664062 -29.347656 12.226562 -29.5 12.53125 -29.65625 C 12.84375 -29.8125 13.359375 -29.957031 14.078125 -30.09375 C 14.953125 -30.25 15.707031 -30.160156 16.34375 -29.828125 C 16.988281 -29.503906 17.550781 -29.050781 18.03125 -28.46875 C 18.507812 -27.894531 18.90625 -27.25 19.21875 -26.53125 C 19.53125 -25.820312 19.765625 -25.164062 19.921875 -24.5625 C 20.304688 -23.3125 20.210938 -21.914062 19.640625 -20.375 C 19.078125 -18.84375 18.359375 -17.15625 17.484375 -15.3125 C 16.953125 -14.144531 16.441406 -12.859375 15.953125 -11.453125 C 15.460938 -10.046875 15.363281 -8.835938 15.65625 -7.828125 C 15.882812 -7.179688 16.160156 -6.675781 16.484375 -6.3125 C 16.816406 -5.945312 17.570312 -5.867188 18.75 -6.078125 C 19.625 -6.242188 20.523438 -6.738281 21.453125 -7.5625 C 22.390625 -8.394531 23.316406 -9.410156 24.234375 -10.609375 C 25.160156 -11.804688 26.050781 -13.101562 26.90625 -14.5 C 27.769531 -15.90625 28.554688 -17.269531 29.265625 -18.59375 C 29.984375 -19.914062 30.578125 -21.09375 31.046875 -22.125 C 31.523438 -23.164062 31.878906 -23.914062 32.109375 -24.375 C 32.296875 -24.84375 32.578125 -25.1875 32.953125 -25.40625 C 33.335938 -25.632812 33.695312 -25.703125 34.03125 -25.609375 C 34.375 -25.515625 34.625 -25.238281 34.78125 -24.78125 C 34.9375 -24.332031 34.851562 -23.679688 34.53125 -22.828125 C 34.320312 -22.265625 33.945312 -21.351562 33.40625 -20.09375 C 32.863281 -18.832031 32.191406 -17.414062 31.390625 -15.84375 C 30.585938 -14.269531 29.675781 -12.632812 28.65625 -10.9375 C 27.644531 -9.238281 26.546875 -7.660156 25.359375 -6.203125 C 24.171875 -4.742188 22.9375 -3.503906 21.65625 -2.484375 C 20.382812 -1.460938 19.109375 -0.835938 17.828125 -0.609375 C 16.492188 -0.367188 15.347656 -0.425781 14.390625 -0.78125 C 13.429688 -1.132812 12.613281 -1.632812 11.9375 -2.28125 C 11.257812 -2.925781 10.722656 -3.675781 10.328125 -4.53125 C 9.941406 -5.382812 9.703125 -6.203125 9.609375 -6.984375 C 9.554688 -7.609375 9.609375 -8.289062 9.765625 -9.03125 C 9.921875 -9.78125 10.125 -10.554688 10.375 -11.359375 C 10.625 -12.171875 10.898438 -12.988281 11.203125 -13.8125 C 11.503906 -14.632812 11.769531 -15.4375 12 -16.21875 C 12.601562 -17.863281 13.078125 -19.257812 13.421875 -20.40625 C 13.765625 -21.550781 13.875 -22.484375 13.75 -23.203125 C 13.664062 -23.660156 13.488281 -24.050781 13.21875 -24.375 C 12.945312 -24.695312 12.578125 -24.816406 12.109375 -24.734375 C 11.804688 -24.679688 11.59375 -24.628906 11.46875 -24.578125 C 11.34375 -24.523438 11.21875 -24.488281 11.09375 -24.46875 C 10.96875 -24.445312 10.789062 -24.398438 10.5625 -24.328125 C 10.332031 -24.265625 9.988281 -24.191406 9.53125 -24.109375 C 8.863281 -23.984375 8.28125 -23.984375 7.78125 -24.109375 C 7.28125 -24.234375 6.816406 -24.3125 6.390625 -24.34375 C 6.242188 -23.9375 5.921875 -23.082031 5.421875 -21.78125 C 4.921875 -20.476562 4.34375 -18.945312 3.6875 -17.1875 C 3.03125 -15.425781 2.332031 -13.578125 1.59375 -11.640625 C 0.851562 -9.703125 0.160156 -7.894531 -0.484375 -6.21875 C -1.128906 -4.539062 -1.675781 -3.117188 -2.125 -1.953125 C -2.582031 -0.785156 -2.867188 -0.0859375 -2.984375 0.140625 Z M -2.984375 0.140625 "/></g></g></g><g fill="#3b82f6" fill-opacity="1"><g transform="translate(248.124767, 233.697438)"><g><path d="M 36.671875 -22.421875 C 35.847656 -20.265625 34.867188 -18.015625 33.734375 -15.671875 C 32.597656 -13.328125 31.335938 -11.140625 29.953125 -9.109375 C 28.566406 -7.085938 27.078125 -5.347656 25.484375 -3.890625 C 23.898438 -2.429688 22.210938 -1.539062 20.421875 -1.21875 C 18.628906 -0.894531 17.226562 -1.265625 16.21875 -2.328125 C 15.207031 -3.398438 14.585938 -4.679688 14.359375 -6.171875 C 14.234375 -6.835938 14.191406 -7.4375 14.234375 -7.96875 C 14.273438 -8.507812 14.332031 -8.992188 14.40625 -9.421875 C 14.488281 -9.859375 14.578125 -10.3125 14.671875 -10.78125 C 14.773438 -11.257812 14.851562 -11.789062 14.90625 -12.375 C 14.988281 -13.082031 14.890625 -13.691406 14.609375 -14.203125 C 14.335938 -14.710938 14.035156 -15.144531 13.703125 -15.5 C 13.335938 -14.90625 12.894531 -14.363281 12.375 -13.875 C 11.851562 -13.382812 11.15625 -13.054688 10.28125 -12.890625 C 9.664062 -12.785156 9.050781 -12.976562 8.4375 -13.46875 C 7.820312 -13.96875 7.4375 -14.65625 7.28125 -15.53125 C 7.144531 -16.25 7.203125 -16.867188 7.453125 -17.390625 C 7.703125 -17.910156 8.019531 -18.335938 8.40625 -18.671875 C 8.789062 -19.003906 9.207031 -19.265625 9.65625 -19.453125 C 10.101562 -19.640625 10.484375 -19.757812 10.796875 -19.8125 C 10.941406 -19.84375 11.265625 -19.875 11.765625 -19.90625 C 12.265625 -19.945312 12.800781 -19.960938 13.375 -19.953125 C 14.957031 -21.773438 16.035156 -23.359375 16.609375 -24.703125 C 17.191406 -26.054688 17.0625 -27.160156 16.21875 -28.015625 C 15.675781 -28.609375 15.09375 -28.863281 14.46875 -28.78125 C 13.851562 -28.695312 13.242188 -28.425781 12.640625 -27.96875 C 12.035156 -27.519531 11.457031 -26.976562 10.90625 -26.34375 C 10.363281 -25.71875 9.878906 -25.128906 9.453125 -24.578125 C 8.617188 -23.367188 7.695312 -21.941406 6.6875 -20.296875 C 5.6875 -18.660156 4.859375 -17.304688 4.203125 -16.234375 C 4.117188 -14.640625 4.054688 -12.960938 4.015625 -11.203125 C 3.960938 -9.660156 3.914062 -7.921875 3.875 -5.984375 C 3.832031 -4.046875 3.785156 -2.039062 3.734375 0.03125 C 3.460938 0.25 3.164062 0.425781 2.84375 0.5625 C 2.519531 0.695312 2.234375 0.816406 1.984375 0.921875 C 1.691406 1.023438 1.390625 1.101562 1.078125 1.15625 C 0.671875 1.226562 0.285156 1.285156 -0.078125 1.328125 C -0.441406 1.367188 -0.757812 1.289062 -1.03125 1.09375 C -1.300781 0.90625 -1.492188 0.554688 -1.609375 0.046875 C -1.734375 -0.453125 -1.726562 -1.195312 -1.59375 -2.1875 C -1.414062 -3.582031 -1.21875 -5.445312 -1 -7.78125 C -0.789062 -10.125 -0.59375 -12.6875 -0.40625 -15.46875 C -0.226562 -18.257812 -0.0546875 -21.164062 0.109375 -24.1875 C 0.273438 -27.207031 0.425781 -30.09375 0.5625 -32.84375 C 0.695312 -35.601562 0.789062 -38.082031 0.84375 -40.28125 C 0.894531 -42.488281 0.914062 -44.222656 0.90625 -45.484375 C 0.820312 -46.847656 0.738281 -48.160156 0.65625 -49.421875 C 0.582031 -50.460938 0.46875 -51.484375 0.3125 -52.484375 C 0.15625 -53.492188 -0.046875 -54.242188 -0.296875 -54.734375 C -0.078125 -55.023438 0.238281 -55.316406 0.65625 -55.609375 C 1.070312 -55.898438 1.5625 -56.148438 2.125 -56.359375 C 2.65625 -56.609375 3.296875 -56.851562 4.046875 -57.09375 C 4.890625 -57.351562 5.609375 -57.507812 6.203125 -57.5625 C 6.804688 -57.625 7.28125 -57.445312 7.625 -57.03125 C 8.019531 -56.570312 8.238281 -55.722656 8.28125 -54.484375 C 8.320312 -53.253906 8.253906 -51.507812 8.078125 -49.25 C 7.859375 -46.351562 7.582031 -43.695312 7.25 -41.28125 C 6.925781 -38.863281 6.597656 -36.59375 6.265625 -34.46875 C 5.929688 -32.351562 5.613281 -30.300781 5.3125 -28.3125 C 5.007812 -26.320312 4.78125 -24.304688 4.625 -22.265625 C 5.382812 -23.941406 6.378906 -25.75 7.609375 -27.6875 C 8.847656 -29.632812 10.34375 -31.320312 12.09375 -32.75 C 13.957031 -34.207031 15.554688 -35.054688 16.890625 -35.296875 C 18.523438 -35.585938 19.800781 -35.242188 20.71875 -34.265625 C 21.632812 -33.296875 22.203125 -32.0625 22.421875 -30.5625 C 22.578125 -29.375 22.476562 -28.234375 22.125 -27.140625 C 21.769531 -26.046875 21.28125 -25.003906 20.65625 -24.015625 C 20.039062 -23.035156 19.351562 -22.160156 18.59375 -21.390625 C 17.84375 -20.617188 17.195312 -19.96875 16.65625 -19.4375 C 17.445312 -19.15625 18.171875 -18.71875 18.828125 -18.125 C 19.492188 -17.53125 19.894531 -16.71875 20.03125 -15.6875 C 20.226562 -14.289062 20.175781 -13.019531 19.875 -11.875 C 19.582031 -10.738281 19.515625 -9.738281 19.671875 -8.875 C 19.847656 -8.21875 20.078125 -7.753906 20.359375 -7.484375 C 20.648438 -7.222656 21.179688 -7.164062 21.953125 -7.3125 C 23.328125 -7.5625 24.664062 -8.410156 25.96875 -9.859375 C 27.269531 -11.304688 28.445312 -12.921875 29.5 -14.703125 C 30.550781 -16.484375 31.503906 -18.226562 32.359375 -19.9375 C 33.210938 -21.65625 33.878906 -22.925781 34.359375 -23.75 C 35.066406 -24.832031 35.753906 -25.207031 36.421875 -24.875 C 37.085938 -24.550781 37.171875 -23.734375 36.671875 -22.421875 Z M 36.671875 -22.421875 "/></g></g></g><g clip-path="url(#id1)"><path fill="#3b82f6" d="M 223.65625 160.496094 L 300.152344 139.273438 L 276.308594 183.519531 L 254.328125 168.769531 L 300.039062 139.347656 L 251.78125 168.273438 L 248.800781 183.144531 L 242.964844 166.71875 L 300.03125 139.34375 L 241.910156 165.597656 Z M 223.65625 160.496094 " fill-opacity="1" fill-rule="evenodd"/></g><g clip-path="url(#id2)"><path fill="#3b82f6" d="M 250.289062 183.480469 L 260.121094 174.503906 L 253.800781 169.839844 Z M 250.289062 183.480469 " fill-opacity="1" fill-rule="evenodd"/></g></svg>