<svg xmlns="http://www.w3.org/2000/svg" xmlns:xlink="http://www.w3.org/1999/xlink" width="500" zoomAndPan="magnify" viewBox="0 0 375 374.999991" height="500" preserveAspectRatio="xMidYMid meet" version="1.0"><defs><g/><clipPath id="id1"><path d="M 29 171.023438 L 98.25 171.023438 L 98.25 235.523438 L 29 235.523438 Z M 29 171.023438 " clip-rule="nonzero"/></clipPath><clipPath id="id2"><path d="M 0 171.023438 L 70 171.023438 L 70 235.523438 L 0 235.523438 Z M 0 171.023438 " clip-rule="nonzero"/></clipPath></defs><g fill="#252f49" fill-opacity="1"><g transform="translate(109.098176, 221.499977)"><g><path d="M 6.359375 -5.640625 L 6.359375 -9.640625 C 8.320312 -11.960938 10.960938 -13.039062 13.558594 -14.078125 C 17.359375 -15.597656 22.078125 -17.480469 22.078125 -22.238281 C 22.078125 -26.160156 18.160156 -27.359375 14.917969 -27.359375 L 0 -27.359375 L 0 -27 C 1.71875 -27.078125 2.558594 -25.917969 2.558594 -21.679688 L 2.558594 -5.640625 C 2.558594 -1.398438 1.71875 -0.28125 0 -0.359375 L 0 0 L 8.917969 0 L 8.917969 -0.359375 C 7.199219 -0.28125 6.359375 -1.398438 6.359375 -5.640625 Z M 6.359375 -26.636719 L 11.917969 -26.636719 C 14.71875 -26.636719 18.238281 -25.796875 18.238281 -22.398438 C 18.238281 -19.640625 16.359375 -17.800781 14.277344 -16.277344 C 11.679688 -14.398438 8.441406 -12.800781 6.359375 -10.71875 Z M 6.359375 -26.636719 "/></g></g></g><g fill="#252f49" fill-opacity="1"><g transform="translate(130.415857, 221.499977)"><g><path d="M 15.359375 -27.359375 L 11.320312 -27.359375 L 2.441406 -2.078125 C 2.039062 -0.960938 1.28125 -0.28125 0 -0.320312 L 0 0 C 1.878906 0 4.800781 0 6.757812 0 L 6.757812 -0.320312 C 5.480469 -0.28125 4.71875 -0.601562 4.320312 -1.761719 C 4.238281 -2.039062 4.121094 -2.359375 4.039062 -2.640625 C 3.800781 -3.320312 3.839844 -3.917969 4.039062 -4.601562 L 4.878906 -6.839844 C 5.757812 -9.359375 9 -8 10.558594 -7.441406 C 13.757812 -6.398438 16.039062 -7 17.4375 -9.960938 L 20.160156 -2.238281 C 20.597656 -0.878906 19.957031 -0.28125 18.597656 -0.320312 L 18.597656 0 L 26.679688 0 L 26.679688 -0.320312 C 25.238281 -0.28125 24.558594 -1 24.160156 -2.238281 Z M 17.199219 -10.757812 C 15.71875 -9.160156 13.679688 -10.160156 11.839844 -10.757812 C 9.199219 -11.640625 7.199219 -11.359375 5.800781 -9.558594 L 11.71875 -26.316406 Z M 17.199219 -10.757812 "/></g></g></g><g fill="#252f49" fill-opacity="1"><g transform="translate(156.293092, 221.499977)"><g><path d="M 6.359375 -5.640625 L 6.359375 -9.640625 C 8.320312 -11.960938 10.960938 -13.039062 13.558594 -14.078125 C 17.359375 -15.597656 22.078125 -17.480469 22.078125 -22.238281 C 22.078125 -26.160156 18.160156 -27.359375 14.917969 -27.359375 L 0 -27.359375 L 0 -27 C 1.71875 -27.078125 2.558594 -25.917969 2.558594 -21.679688 L 2.558594 -5.640625 C 2.558594 -1.398438 1.71875 -0.28125 0 -0.359375 L 0 0 L 8.917969 0 L 8.917969 -0.359375 C 7.199219 -0.28125 6.359375 -1.398438 6.359375 -5.640625 Z M 6.359375 -26.636719 L 11.917969 -26.636719 C 14.71875 -26.636719 18.238281 -25.796875 18.238281 -22.398438 C 18.238281 -19.640625 16.359375 -17.800781 14.277344 -16.277344 C 11.679688 -14.398438 8.441406 -12.800781 6.359375 -10.71875 Z M 6.359375 -26.636719 "/></g></g></g><g fill="#252f49" fill-opacity="1"><g transform="translate(177.610773, 221.499977)"><g><path d="M 0 0 L 21.199219 0 L 23.480469 -7.199219 L 23.160156 -7.199219 C 21.679688 -3.519531 17.320312 -0.71875 13.398438 -0.71875 L 6.359375 -0.71875 L 6.359375 -11.640625 C 7.878906 -13.757812 10 -12.679688 11.960938 -12.039062 C 15.480469 -10.839844 17.878906 -11.71875 19.238281 -15.679688 L 18.917969 -15.839844 C 17.398438 -13.519531 15.199219 -14.640625 13.238281 -15.320312 C 10.039062 -16.398438 7.757812 -15.800781 6.359375 -12.757812 L 6.359375 -26.636719 L 13.640625 -26.636719 C 16.878906 -26.636719 20.679688 -24.398438 21.917969 -21.320312 L 22.277344 -21.320312 L 20.597656 -27.359375 L 0 -27.359375 L 0 -27 C 1.71875 -27.078125 2.558594 -25.917969 2.558594 -21.679688 L 2.558594 -5.640625 C 2.558594 -1.398438 1.71875 -0.28125 0 -0.359375 Z M 0 0 "/></g></g></g><g fill="#252f49" fill-opacity="1"><g transform="translate(200.208327, 221.499977)"><g><path d="M 6.359375 -5.640625 L 6.359375 -10.917969 C 7.199219 -11.878906 8.878906 -13.277344 10.398438 -14 C 12.839844 -15.160156 14.117188 -14.117188 14.960938 -11.71875 C 15.960938 -9 16.71875 -5.121094 18.160156 -2.480469 C 18.917969 -1.039062 20.078125 0 22.039062 0 C 23.199219 0 24.359375 -0.480469 24.917969 -1.640625 L 24.636719 -1.878906 C 23.839844 -1.199219 22.917969 -1.71875 22.359375 -2.359375 C 20.917969 -3.917969 19.277344 -10.121094 18.519531 -12.359375 C 17.917969 -14.117188 16.640625 -15.277344 14.359375 -15.519531 C 18.117188 -16.839844 22.078125 -18.277344 22.078125 -22.238281 C 22.078125 -26.160156 18.160156 -27.359375 14.917969 -27.359375 L 0 -27.359375 L 0 -27 C 1.71875 -27.078125 2.558594 -25.917969 2.558594 -21.679688 L 2.558594 -5.640625 C 2.558594 -1.398438 1.71875 -0.28125 0 -0.359375 L 0 0 L 8.917969 0 L 8.917969 -0.359375 C 7.199219 -0.28125 6.359375 -1.398438 6.359375 -5.640625 Z M 6.359375 -26.636719 L 11.917969 -26.636719 C 14.71875 -26.636719 18.277344 -25.957031 18.238281 -22.398438 C 18.238281 -18.796875 12.679688 -16.480469 10.078125 -14.757812 C 8.679688 -13.878906 7.398438 -13 6.359375 -11.960938 Z M 6.359375 -26.636719 "/></g></g></g><g fill="#252f49" fill-opacity="1"><g transform="translate(224.32573, 221.499977)"><g><path d="M 11.277344 0 L 15.359375 0 L 19.558594 -11.917969 L 23.71875 0 L 27.796875 0 L 36.636719 -25.238281 C 37.039062 -26.398438 37.796875 -27.039062 39.078125 -27 L 39.078125 -27.359375 C 37.199219 -27.359375 34.316406 -27.359375 32.398438 -27.359375 L 32.398438 -27 C 33.636719 -27.039062 34.359375 -26.757812 34.757812 -25.597656 C 34.835938 -25.277344 34.957031 -25 35.039062 -24.71875 C 35.277344 -24.039062 35.238281 -23.4375 34.996094 -22.757812 L 27.398438 -1 L 18.957031 -25.117188 C 18.480469 -26.4375 19.199219 -27.039062 20.519531 -27 L 20.519531 -27.359375 L 12.4375 -27.359375 L 12.4375 -27 C 13.839844 -27.039062 14.480469 -26.316406 14.917969 -25.117188 L 19.160156 -13 L 14.960938 -1 L 6.519531 -25.117188 C 6.039062 -26.4375 6.757812 -27.039062 8.078125 -27 L 8.078125 -27.359375 L 0 -27.359375 L 0 -27 C 1.398438 -27.039062 2.039062 -26.316406 2.480469 -25.117188 Z M 11.277344 0 "/></g></g></g><g fill="#252f49" fill-opacity="1"><g transform="translate(262.521735, 221.499977)"><g><path d="M 13.679688 -27.359375 C 21.238281 -27.359375 27.359375 -21.238281 27.359375 -13.679688 C 27.359375 -6.121094 21.238281 0 13.679688 0 C 6.121094 0 0 -6.121094 0 -13.679688 C 0 -21.238281 6.121094 -27.359375 13.679688 -27.359375 Z M 9.28125 -25.839844 C 4.160156 -24 2 -17.078125 4.441406 -10.320312 C 6.878906 -3.601562 12.960938 0.359375 18.078125 -1.480469 C 23.160156 -3.320312 25.359375 -10.28125 22.917969 -17 C 20.480469 -23.71875 14.359375 -27.679688 9.28125 -25.839844 Z M 9.28125 -25.839844 "/></g></g></g><g fill="#252f49" fill-opacity="1"><g transform="translate(289.118901, 221.499977)"><g><path d="M 6.359375 -5.640625 L 6.359375 -10.917969 C 7.199219 -11.878906 8.878906 -13.277344 10.398438 -14 C 12.839844 -15.160156 14.117188 -14.117188 14.960938 -11.71875 C 15.960938 -9 16.71875 -5.121094 18.160156 -2.480469 C 18.917969 -1.039062 20.078125 0 22.039062 0 C 23.199219 0 24.359375 -0.480469 24.917969 -1.640625 L 24.636719 -1.878906 C 23.839844 -1.199219 22.917969 -1.71875 22.359375 -2.359375 C 20.917969 -3.917969 19.277344 -10.121094 18.519531 -12.359375 C 17.917969 -14.117188 16.640625 -15.277344 14.359375 -15.519531 C 18.117188 -16.839844 22.078125 -18.277344 22.078125 -22.238281 C 22.078125 -26.160156 18.160156 -27.359375 14.917969 -27.359375 L 0 -27.359375 L 0 -27 C 1.71875 -27.078125 2.558594 -25.917969 2.558594 -21.679688 L 2.558594 -5.640625 C 2.558594 -1.398438 1.71875 -0.28125 0 -0.359375 L 0 0 L 8.917969 0 L 8.917969 -0.359375 C 7.199219 -0.28125 6.359375 -1.398438 6.359375 -5.640625 Z M 6.359375 -26.636719 L 11.917969 -26.636719 C 14.71875 -26.636719 18.277344 -25.957031 18.238281 -22.398438 C 18.238281 -18.796875 12.679688 -16.480469 10.078125 -14.757812 C 8.679688 -13.878906 7.398438 -13 6.359375 -11.960938 Z M 6.359375 -26.636719 "/></g></g></g><g fill="#252f49" fill-opacity="1"><g transform="translate(313.236316, 221.499977)"><g><path d="M 24.917969 -1.640625 L 24.636719 -1.878906 C 23.839844 -1.199219 22.917969 -1.71875 22.359375 -2.359375 C 20.917969 -3.917969 19.277344 -10.121094 18.519531 -12.359375 C 17.800781 -14.480469 16.519531 -16.320312 13.757812 -16.320312 C 12.917969 -16.320312 12.160156 -16.117188 11.4375 -15.839844 L 18.917969 -23.839844 C 19.558594 -24.476562 20.199219 -25.117188 20.839844 -25.757812 C 21.597656 -26.519531 22 -27.039062 23.238281 -27 L 23.238281 -27.359375 L 16.558594 -27.359375 L 16.558594 -27 C 17.640625 -27.039062 18.199219 -27.039062 18.640625 -26.199219 C 18.679688 -26.160156 18.71875 -26.039062 18.757812 -25.917969 C 19.078125 -25.199219 18.71875 -24.71875 18.238281 -24.199219 L 9.4375 -14.800781 C 8.320312 -13.640625 7.359375 -12.640625 6.359375 -11.320312 L 6.359375 -21.679688 C 6.359375 -25.917969 7.199219 -27.078125 8.917969 -27 L 8.917969 -27.359375 L 0 -27.359375 L 0 -27 C 1.71875 -27.078125 2.558594 -25.917969 2.558594 -21.679688 L 2.558594 -5.640625 C 2.558594 -1.398438 1.71875 -0.28125 0 -0.359375 L 0 0 L 8.917969 0 L 8.917969 -0.359375 C 7.199219 -0.28125 6.359375 -1.398438 6.359375 -5.640625 L 6.359375 -10.039062 C 6.917969 -10.839844 7.640625 -11.757812 8.441406 -12.558594 C 11.199219 -15.238281 13.679688 -15.320312 14.960938 -11.71875 C 15.960938 -9 16.71875 -5.121094 18.160156 -2.480469 C 18.917969 -1.039062 20.078125 0 22.039062 0 C 23.199219 0 24.359375 -0.480469 24.917969 -1.640625 Z M 24.917969 -1.640625 "/></g></g></g><g fill="#252f49" fill-opacity="1"><g transform="translate(337.35373, 221.499977)"><g><path d="M 0.359375 -11.039062 L 0 -11.039062 L 0 -4.199219 C 3.199219 -1.359375 7.28125 0 11.679688 0 C 15 0 18.757812 -0.921875 20.71875 -3.558594 C 22.636719 -6.199219 22.558594 -10.597656 20.320312 -13 C 16.917969 -16.597656 10.121094 -16.078125 5.800781 -18.359375 C 3 -19.839844 2.519531 -22.277344 4.519531 -24.359375 C 6.558594 -26.398438 9.480469 -26.917969 12.160156 -26.476562 C 15.597656 -25.917969 17.917969 -23.679688 20.597656 -19.796875 L 22.078125 -23.679688 C 19.199219 -26.039062 15.117188 -27.359375 11 -27.359375 C 8.71875 -27.359375 6.441406 -26.878906 4.480469 -25.917969 C 2.359375 -24.839844 0 -22.796875 0 -20 C 0 -17.160156 2.601562 -15.480469 4.757812 -14.558594 C 8.320312 -13.039062 12.640625 -12.917969 16 -11.359375 C 18 -10.4375 19.71875 -8.441406 19.597656 -6.039062 C 19.4375 -2 14.960938 -0.761719 11.878906 -0.71875 C 6.558594 -0.679688 1.839844 -4.878906 0.359375 -11.039062 Z M 0.359375 -11.039062 "/></g></g></g><g clip-path="url(#id1)"><path fill="#252f49" d="M 95.980469 194.796875 L 87.164062 179.488281 C 85.683594 176.917969 83.542969 174.773438 80.980469 173.289062 C 78.414062 171.804688 75.492188 171.019531 72.53125 171.019531 L 54.894531 171.019531 C 52.921875 171.019531 50.96875 171.367188 49.125 172.039062 C 50.050781 172.375 50.945312 172.792969 51.804688 173.289062 C 54.371094 174.773438 56.511719 176.917969 57.992188 179.488281 L 60.21875 183.355469 L 72.53125 183.355469 C 74.164062 183.355469 75.6875 184.238281 76.507812 185.65625 L 85.324219 200.964844 C 86.140625 202.386719 86.140625 204.148438 85.324219 205.570312 L 76.507812 220.878906 C 75.6875 222.296875 74.164062 223.179688 72.53125 223.179688 L 54.894531 223.179688 C 53.257812 223.179688 51.734375 222.296875 50.917969 220.878906 L 49.125 217.765625 L 42.097656 205.570312 C 41.28125 204.148438 41.28125 202.386719 42.097656 200.964844 L 49.125 188.765625 L 47.332031 185.65625 C 46.515625 184.238281 44.992188 183.355469 43.355469 183.355469 L 38.03125 183.355469 L 31.441406 194.796875 C 29.960938 197.367188 29.175781 200.296875 29.175781 203.265625 C 29.175781 206.234375 29.960938 209.164062 31.441406 211.738281 L 38.03125 223.179688 L 40.257812 227.042969 C 41.738281 229.617188 43.878906 231.761719 46.445312 233.246094 C 47.300781 233.742188 48.199219 234.160156 49.125 234.496094 C 50.96875 235.167969 52.921875 235.515625 54.894531 235.515625 L 72.53125 235.515625 C 75.492188 235.515625 78.414062 234.730469 80.980469 233.246094 C 83.542969 231.761719 85.683594 229.617188 87.164062 227.042969 L 95.980469 211.738281 C 97.464844 209.164062 98.246094 206.234375 98.246094 203.265625 C 98.246094 200.296875 97.464844 197.367188 95.980469 194.796875 " fill-opacity="1" fill-rule="nonzero"/></g><g clip-path="url(#id2)"><path fill="#45547b" d="M 69.074219 203.265625 C 69.074219 206.234375 68.289062 209.164062 66.808594 211.738281 L 60.21875 223.179688 L 54.894531 223.179688 C 53.257812 223.179688 51.734375 222.296875 50.917969 220.878906 L 49.125 217.765625 L 56.152344 205.570312 C 56.96875 204.148438 56.96875 202.386719 56.152344 200.964844 L 49.125 188.765625 L 47.332031 185.65625 C 46.515625 184.238281 44.992188 183.355469 43.355469 183.355469 L 25.71875 183.355469 C 24.085938 183.355469 22.558594 184.238281 21.742188 185.65625 L 12.925781 200.964844 C 12.105469 202.386719 12.105469 204.148438 12.925781 205.570312 L 21.742188 220.878906 C 22.558594 222.296875 24.085938 223.179688 25.71875 223.179688 L 38.03125 223.179688 L 40.257812 227.042969 C 41.738281 229.617188 43.878906 231.761719 46.445312 233.246094 C 47.300781 233.742188 48.199219 234.160156 49.125 234.496094 C 47.28125 235.167969 45.328125 235.515625 43.355469 235.515625 L 25.71875 235.515625 C 22.757812 235.515625 19.835938 234.730469 17.269531 233.246094 C 14.703125 231.761719 12.566406 229.617188 11.085938 227.042969 L 2.265625 211.738281 C 0.785156 209.164062 0.00390625 206.234375 0.00390625 203.265625 C 0.00390625 200.296875 0.785156 197.367188 2.265625 194.796875 L 11.085938 179.488281 C 12.566406 176.917969 14.703125 174.773438 17.269531 173.289062 C 19.835938 171.804688 22.757812 171.019531 25.71875 171.019531 L 43.355469 171.019531 C 45.328125 171.019531 47.28125 171.367188 49.125 172.039062 C 50.050781 172.375 50.945312 172.792969 51.804688 173.289062 C 54.371094 174.773438 56.511719 176.917969 57.992188 179.488281 L 60.21875 183.355469 L 66.808594 194.796875 C 68.289062 197.367188 69.074219 200.296875 69.074219 203.265625 " fill-opacity="1" fill-rule="nonzero"/></g></svg>