<svg xmlns="http://www.w3.org/2000/svg" xmlns:xlink="http://www.w3.org/1999/xlink" width="500" zoomAndPan="magnify" viewBox="0 0 375 374.999991" height="500" preserveAspectRatio="xMidYMid meet" version="1.0"><defs><g/><clipPath id="id1"><path d="M 122.597656 149 L 187 149 L 187 211 L 122.597656 211 Z M 122.597656 149 " clip-rule="nonzero"/></clipPath><clipPath id="id2"><path d="M 122.597656 188 L 187 188 L 187 211 L 122.597656 211 Z M 122.597656 188 " clip-rule="nonzero"/></clipPath><clipPath id="id3"><path d="M 187 149 L 252.347656 149 L 252.347656 211 L 187 211 Z M 187 149 " clip-rule="nonzero"/></clipPath><clipPath id="id4"><path d="M 188 188 L 252.347656 188 L 252.347656 211 L 188 211 Z M 188 188 " clip-rule="nonzero"/></clipPath><clipPath id="id5"><path d="M 165 121.3125 L 210 121.3125 L 210 126 L 165 126 Z M 165 121.3125 " clip-rule="nonzero"/></clipPath></defs><path fill="#fffafa" d="M 187.230469 209.949219 C 187.230469 209.949219 181.835938 182.117188 141.207031 171.902344 C 147.34375 148.777344 149.039062 142.996094 149.039062 142.996094 C 149.039062 142.996094 161.851562 145.601562 169.035156 151.84375 C 169.035156 151.84375 161.777344 140.574219 145.175781 137.746094 C 140.5 156.125 135.082031 175.496094 135.082031 175.496094 C 135.082031 175.496094 170.027344 178.945312 187.230469 209.949219 Z M 187.230469 209.949219 " fill-opacity="1" fill-rule="nonzero"/><g clip-path="url(#id1)"><path fill="#fffafa" d="M 186.96875 210.363281 C 186.96875 210.363281 163.347656 183.042969 122.597656 186.996094 L 132.34375 149.128906 L 140.503906 151.339844 L 139.671875 154.722656 L 135.867188 154.035156 L 129.195312 182.449219 C 129.195312 182.449219 167.445312 180.335938 186.96875 210.363281 Z M 186.96875 210.363281 " fill-opacity="1" fill-rule="nonzero"/></g><g clip-path="url(#id2)"><path fill="#fffafa" d="M 186.710938 210.855469 C 186.710938 210.855469 159.433594 192.945312 122.785156 201.671875 C 125.035156 191.707031 125.8125 188.34375 125.8125 188.34375 L 130.890625 188.25 L 129.84375 195.199219 C 129.84375 195.199219 160.980469 189.953125 186.710938 210.855469 Z M 186.710938 210.855469 " fill-opacity="1" fill-rule="nonzero"/></g><path fill="#fffafa" d="M 186.390625 211.320312 C 186.390625 211.320312 160.535156 202.746094 128.96875 211.921875 C 130.046875 204.945312 130.425781 203.054688 130.425781 203.054688 C 130.425781 203.054688 163.285156 197.089844 186.390625 211.320312 Z M 186.390625 211.320312 " fill-opacity="1" fill-rule="nonzero"/><path fill="#fffafa" d="M 187.628906 209.707031 C 187.628906 209.707031 193.128906 181.902344 233.804688 171.847656 C 227.757812 148.699219 226.082031 142.910156 226.082031 142.910156 C 226.082031 142.910156 213.261719 145.46875 206.054688 151.679688 C 206.054688 151.679688 213.355469 140.441406 229.96875 137.679688 C 234.570312 156.078125 239.90625 175.472656 239.90625 175.472656 C 239.90625 175.472656 204.949219 178.777344 187.628906 209.707031 Z M 187.628906 209.707031 " fill-opacity="1" fill-rule="nonzero"/><g clip-path="url(#id3)"><path fill="#fffafa" d="M 187.882812 210.128906 C 187.882812 210.128906 211.613281 182.902344 252.34375 187.023438 L 242.746094 149.117188 L 234.574219 151.296875 L 235.394531 154.6875 L 239.199219 154.011719 L 245.757812 182.449219 C 245.769531 182.445312 207.523438 180.179688 187.882812 210.128906 Z M 187.882812 210.128906 " fill-opacity="1" fill-rule="nonzero"/></g><g clip-path="url(#id4)"><path fill="#fffafa" d="M 188.140625 210.613281 C 188.140625 210.613281 215.492188 192.8125 252.101562 201.6875 C 249.894531 191.71875 249.128906 188.347656 249.128906 188.347656 L 244.050781 188.238281 L 245.070312 195.195312 C 245.070312 195.195312 213.953125 189.828125 188.140625 210.613281 Z M 188.140625 210.613281 " fill-opacity="1" fill-rule="nonzero"/></g><path fill="#fffafa" d="M 188.460938 211.082031 C 188.460938 211.082031 214.351562 202.613281 245.878906 211.917969 C 244.828125 204.933594 244.453125 203.042969 244.453125 203.042969 C 244.453125 203.042969 211.621094 196.945312 188.460938 211.082031 Z M 188.460938 211.082031 " fill-opacity="1" fill-rule="nonzero"/><g clip-path="url(#id5)"><path fill="#fffafa" d="M 209.664062 125.410156 L 165.257812 125.410156 C 165.578125 124.042969 165.859375 122.714844 166.113281 121.457031 L 208.816406 121.457031 C 209.0625 122.714844 209.347656 124.035156 209.664062 125.410156 Z M 209.664062 125.410156 " fill-opacity="1" fill-rule="nonzero"/></g><path fill="#fffafa" d="M 211.054688 130.9375 L 163.871094 130.9375 C 164.167969 129.890625 164.429688 128.859375 164.671875 127.847656 L 210.25 127.847656 C 210.492188 128.859375 210.761719 129.890625 211.054688 130.9375 Z M 211.054688 130.9375 " fill-opacity="1" fill-rule="nonzero"/><path fill="#fffafa" d="M 212.6875 136.5 C 212.6875 136.5 190.535156 153.613281 187.542969 192.777344 L 187.542969 195.261719 C 187.519531 194.8125 187.488281 194.371094 187.464844 193.929688 C 187.433594 194.371094 187.410156 194.8125 187.386719 195.261719 L 187.386719 192.777344 C 184.382812 153.613281 162.234375 136.5 162.234375 136.5 C 162.566406 135.449219 162.894531 134.410156 163.1875 133.382812 L 211.742188 133.382812 C 212.03125 134.40625 212.355469 135.449219 212.6875 136.5 Z M 212.6875 136.5 " fill-opacity="1" fill-rule="nonzero"/><g fill="#fffafa" fill-opacity="1"><g transform="translate(50.1836, 245.187699)"><g><path d="M 13.375 -24.5 C 15.5 -24.5 17.347656 -24.148438 18.921875 -23.453125 C 20.492188 -22.753906 21.695312 -21.75 22.53125 -20.4375 C 23.375 -19.132812 23.796875 -17.582031 23.796875 -15.78125 C 23.796875 -14.007812 23.375 -12.460938 22.53125 -11.140625 C 21.695312 -9.828125 20.492188 -8.816406 18.921875 -8.109375 C 17.347656 -7.410156 15.5 -7.0625 13.375 -7.0625 L 7.84375 -7.0625 L 7.84375 0 L 3.296875 0 L 3.296875 -24.5 Z M 13.15625 -10.921875 C 15.144531 -10.921875 16.648438 -11.335938 17.671875 -12.171875 C 18.703125 -13.015625 19.21875 -14.21875 19.21875 -15.78125 C 19.21875 -17.34375 18.703125 -18.546875 17.671875 -19.390625 C 16.648438 -20.234375 15.144531 -20.65625 13.15625 -20.65625 L 7.84375 -20.65625 L 7.84375 -10.921875 Z M 13.15625 -10.921875 "/></g></g></g><g fill="#fffafa" fill-opacity="1"><g transform="translate(79.087866, 245.187699)"><g><path d="M 19.1875 -5.671875 L 6.9375 -5.671875 L 4.515625 0 L -0.171875 0 L 10.84375 -24.5 L 15.328125 -24.5 L 26.390625 0 L 21.625 0 Z M 17.671875 -9.234375 L 13.0625 -19.953125 L 8.46875 -9.234375 Z M 17.671875 -9.234375 "/></g></g></g><g fill="#fffafa" fill-opacity="1"><g transform="translate(108.796961, 245.187699)"><g><path d="M 13.375 -24.5 C 15.5 -24.5 17.347656 -24.148438 18.921875 -23.453125 C 20.492188 -22.753906 21.695312 -21.75 22.53125 -20.4375 C 23.375 -19.132812 23.796875 -17.582031 23.796875 -15.78125 C 23.796875 -14.007812 23.375 -12.460938 22.53125 -11.140625 C 21.695312 -9.828125 20.492188 -8.816406 18.921875 -8.109375 C 17.347656 -7.410156 15.5 -7.0625 13.375 -7.0625 L 7.84375 -7.0625 L 7.84375 0 L 3.296875 0 L 3.296875 -24.5 Z M 13.15625 -10.921875 C 15.144531 -10.921875 16.648438 -11.335938 17.671875 -12.171875 C 18.703125 -13.015625 19.21875 -14.21875 19.21875 -15.78125 C 19.21875 -17.34375 18.703125 -18.546875 17.671875 -19.390625 C 16.648438 -20.234375 15.144531 -20.65625 13.15625 -20.65625 L 7.84375 -20.65625 L 7.84375 -10.921875 Z M 13.15625 -10.921875 "/></g></g></g><g fill="#fffafa" fill-opacity="1"><g transform="translate(137.701227, 245.187699)"><g><path d="M 21.671875 -3.8125 L 21.671875 0 L 3.296875 0 L 3.296875 -24.5 L 21.171875 -24.5 L 21.171875 -20.6875 L 7.84375 -20.6875 L 7.84375 -14.3125 L 19.671875 -14.3125 L 19.671875 -10.5625 L 7.84375 -10.5625 L 7.84375 -3.8125 Z M 21.671875 -3.8125 "/></g></g></g><g fill="#fffafa" fill-opacity="1"><g transform="translate(164.645944, 245.187699)"><g><path d="M 19.3125 0 L 14.3125 -7.171875 C 14.101562 -7.148438 13.789062 -7.140625 13.375 -7.140625 L 7.84375 -7.140625 L 7.84375 0 L 3.296875 0 L 3.296875 -24.5 L 13.375 -24.5 C 15.5 -24.5 17.347656 -24.148438 18.921875 -23.453125 C 20.492188 -22.753906 21.695312 -21.75 22.53125 -20.4375 C 23.375 -19.132812 23.796875 -17.582031 23.796875 -15.78125 C 23.796875 -13.9375 23.347656 -12.347656 22.453125 -11.015625 C 21.554688 -9.691406 20.265625 -8.703125 18.578125 -8.046875 L 24.21875 0 Z M 19.21875 -15.78125 C 19.21875 -17.34375 18.703125 -18.546875 17.671875 -19.390625 C 16.648438 -20.234375 15.144531 -20.65625 13.15625 -20.65625 L 7.84375 -20.65625 L 7.84375 -10.890625 L 13.15625 -10.890625 C 15.144531 -10.890625 16.648438 -11.3125 17.671875 -12.15625 C 18.703125 -13.007812 19.21875 -14.21875 19.21875 -15.78125 Z M 19.21875 -15.78125 "/></g></g></g><g fill="#fffafa" fill-opacity="1"><g transform="translate(193.725185, 245.187699)"><g><path d="M 39.09375 -24.5 L 30.96875 0 L 26.140625 0 L 20.09375 -18.125 L 13.9375 0 L 9.0625 0 L 0.9375 -24.5 L 5.671875 -24.5 L 11.765625 -5.875 L 18.09375 -24.5 L 22.296875 -24.5 L 28.484375 -5.78125 L 34.75 -24.5 Z M 39.09375 -24.5 "/></g></g></g><g fill="#fffafa" fill-opacity="1"><g transform="translate(237.25615, 245.187699)"><g><path d="M 14.734375 0.34375 C 12.234375 0.34375 9.976562 -0.195312 7.96875 -1.28125 C 5.96875 -2.363281 4.394531 -3.867188 3.25 -5.796875 C 2.113281 -7.722656 1.546875 -9.875 1.546875 -12.25 C 1.546875 -14.625 2.113281 -16.773438 3.25 -18.703125 C 4.394531 -20.628906 5.96875 -22.132812 7.96875 -23.21875 C 9.976562 -24.300781 12.234375 -24.84375 14.734375 -24.84375 C 17.234375 -24.84375 19.484375 -24.300781 21.484375 -23.21875 C 23.492188 -22.132812 25.070312 -20.632812 26.21875 -18.71875 C 27.363281 -16.8125 27.9375 -14.65625 27.9375 -12.25 C 27.9375 -9.84375 27.363281 -7.679688 26.21875 -5.765625 C 25.070312 -3.859375 23.492188 -2.363281 21.484375 -1.28125 C 19.484375 -0.195312 17.234375 0.34375 14.734375 0.34375 Z M 14.734375 -3.640625 C 16.367188 -3.640625 17.835938 -4.003906 19.140625 -4.734375 C 20.453125 -5.472656 21.476562 -6.5 22.21875 -7.8125 C 22.96875 -9.132812 23.34375 -10.613281 23.34375 -12.25 C 23.34375 -13.882812 22.96875 -15.359375 22.21875 -16.671875 C 21.476562 -17.992188 20.453125 -19.019531 19.140625 -19.75 C 17.835938 -20.488281 16.367188 -20.859375 14.734375 -20.859375 C 13.097656 -20.859375 11.625 -20.488281 10.3125 -19.75 C 9.007812 -19.019531 7.984375 -17.992188 7.234375 -16.671875 C 6.492188 -15.359375 6.125 -13.882812 6.125 -12.25 C 6.125 -10.613281 6.492188 -9.132812 7.234375 -7.8125 C 7.984375 -6.5 9.007812 -5.472656 10.3125 -4.734375 C 11.625 -4.003906 13.097656 -3.640625 14.734375 -3.640625 Z M 14.734375 -3.640625 "/></g></g></g><g fill="#fffafa" fill-opacity="1"><g transform="translate(270.219503, 245.187699)"><g><path d="M 19.3125 0 L 14.3125 -7.171875 C 14.101562 -7.148438 13.789062 -7.140625 13.375 -7.140625 L 7.84375 -7.140625 L 7.84375 0 L 3.296875 0 L 3.296875 -24.5 L 13.375 -24.5 C 15.5 -24.5 17.347656 -24.148438 18.921875 -23.453125 C 20.492188 -22.753906 21.695312 -21.75 22.53125 -20.4375 C 23.375 -19.132812 23.796875 -17.582031 23.796875 -15.78125 C 23.796875 -13.9375 23.347656 -12.347656 22.453125 -11.015625 C 21.554688 -9.691406 20.265625 -8.703125 18.578125 -8.046875 L 24.21875 0 Z M 19.21875 -15.78125 C 19.21875 -17.34375 18.703125 -18.546875 17.671875 -19.390625 C 16.648438 -20.234375 15.144531 -20.65625 13.15625 -20.65625 L 7.84375 -20.65625 L 7.84375 -10.890625 L 13.15625 -10.890625 C 15.144531 -10.890625 16.648438 -11.3125 17.671875 -12.15625 C 18.703125 -13.007812 19.21875 -14.21875 19.21875 -15.78125 Z M 19.21875 -15.78125 "/></g></g></g><g fill="#fffafa" fill-opacity="1"><g transform="translate(299.298732, 245.187699)"><g><path d="M 11.71875 -10.25 L 7.84375 -6.265625 L 7.84375 0 L 3.296875 0 L 3.296875 -24.5 L 7.84375 -24.5 L 7.84375 -11.9375 L 19.953125 -24.5 L 25.0625 -24.5 L 14.765625 -13.546875 L 25.6875 0 L 20.375 0 Z M 11.71875 -10.25 "/></g></g></g></svg>