<svg xmlns="http://www.w3.org/2000/svg" xmlns:xlink="http://www.w3.org/1999/xlink" width="300" zoomAndPan="magnify" viewBox="0 0 224.87999 225" height="300" preserveAspectRatio="xMidYMid meet" version="1.0"><defs><g/><clipPath id="id1"><path d="M 0 0.0585938 L 224.761719 0.0585938 L 224.761719 224.9375 L 0 224.9375 Z M 0 0.0585938 " clip-rule="nonzero"/></clipPath></defs><g clip-path="url(#id1)"><path fill="#ffffff" d="M 0 0.0585938 L 224.878906 0.0585938 L 224.878906 232.4375 L 0 232.4375 Z M 0 0.0585938 " fill-opacity="1" fill-rule="nonzero"/><path fill="#f8f9fb" d="M 0 0.0585938 L 224.878906 0.0585938 L 224.878906 224.941406 L 0 224.941406 Z M 0 0.0585938 " fill-opacity="1" fill-rule="nonzero"/><path fill="#ffffff" d="M 0 0.0585938 L 224.878906 0.0585938 L 224.878906 224.941406 L 0 224.941406 Z M 0 0.0585938 " fill-opacity="1" fill-rule="nonzero"/><path fill="#f8f9fb" d="M 0 0.0585938 L 224.878906 0.0585938 L 224.878906 224.941406 L 0 224.941406 Z M 0 0.0585938 " fill-opacity="1" fill-rule="nonzero"/></g><g fill="#000000" fill-opacity="1"><g transform="translate(46.633314, 122.619604)"><g><path d="M 9.980469 -21.164062 L 1.5 -21.164062 L 1.5 0 L 6.625 0 L 6.625 -6.234375 L 9.980469 -6.234375 C 14.898438 -6.234375 17.355469 -9.980469 17.355469 -13.667969 C 17.355469 -17.355469 14.898438 -21.164062 9.980469 -21.164062 Z M 9.980469 -11.0625 L 6.625 -11.0625 L 6.625 -16.1875 L 9.980469 -16.1875 C 11.570312 -16.1875 12.351562 -14.839844 12.351562 -13.578125 C 12.351562 -12.351562 11.570312 -11.0625 9.980469 -11.0625 Z M 9.980469 -11.0625 "/></g></g></g><g fill="#000000" fill-opacity="1"><g transform="translate(64.916445, 122.619604)"><g><path d="M 8.273438 -16.488281 C 2.996094 -16.488281 0.417969 -12.769531 0.417969 -8.332031 C 0.417969 -3.867188 3.085938 0.210938 8.214844 0.210938 C 9.773438 0.210938 11.359375 -0.238281 12.46875 -1.617188 L 12.46875 0 L 17.175781 0 L 17.175781 -16.21875 L 12.46875 -16.21875 L 12.46875 -14.539062 C 11.421875 -15.886719 9.863281 -16.488281 8.273438 -16.488281 Z M 8.78125 -4.316406 C 6.386719 -4.316406 5.15625 -6.265625 5.15625 -8.214844 C 5.15625 -10.191406 6.355469 -12.140625 8.78125 -12.140625 C 10.820312 -12.140625 12.46875 -10.371094 12.46875 -8.214844 C 12.46875 -6.054688 10.820312 -4.316406 8.78125 -4.316406 Z M 8.78125 -4.316406 "/></g></g></g><g fill="#000000" fill-opacity="1"><g transform="translate(84.188665, 122.619604)"><g><path d="M 0.597656 -11 C 0.597656 -7.433594 3.777344 -6.265625 6.835938 -5.996094 C 7.613281 -5.933594 9.414062 -6.085938 9.414062 -4.917969 C 9.414062 -4.375 8.632812 -3.925781 7.464844 -3.925781 C 6.355469 -3.925781 5.125 -4.347656 5.097656 -5.457031 L 0.359375 -5.457031 C 0.417969 -1.320312 3.355469 0.417969 7.222656 0.417969 C 10.820312 0.417969 14.148438 -0.960938 14.148438 -5.035156 C 14.148438 -8.871094 10.703125 -10.3125 7.3125 -10.402344 C 6.625 -10.433594 5.367188 -10.460938 5.367188 -11.300781 C 5.367188 -12.171875 6.324219 -12.410156 7.015625 -12.410156 C 8.003906 -12.410156 9.261719 -12.320312 9.292969 -11.0625 L 13.820312 -11.0625 C 13.789062 -14.839844 10.761719 -16.605469 7.285156 -16.605469 C 3.65625 -16.605469 0.597656 -14.929688 0.597656 -11 Z M 0.597656 -11 "/></g></g></g><g fill="#000000" fill-opacity="1"><g transform="translate(99.624423, 122.619604)"><g><path d="M 0.597656 -11 C 0.597656 -7.433594 3.777344 -6.265625 6.835938 -5.996094 C 7.613281 -5.933594 9.414062 -6.085938 9.414062 -4.917969 C 9.414062 -4.375 8.632812 -3.925781 7.464844 -3.925781 C 6.355469 -3.925781 5.125 -4.347656 5.097656 -5.457031 L 0.359375 -5.457031 C 0.417969 -1.320312 3.355469 0.417969 7.222656 0.417969 C 10.820312 0.417969 14.148438 -0.960938 14.148438 -5.035156 C 14.148438 -8.871094 10.703125 -10.3125 7.3125 -10.402344 C 6.625 -10.433594 5.367188 -10.460938 5.367188 -11.300781 C 5.367188 -12.171875 6.324219 -12.410156 7.015625 -12.410156 C 8.003906 -12.410156 9.261719 -12.320312 9.292969 -11.0625 L 13.820312 -11.0625 C 13.789062 -14.839844 10.761719 -16.605469 7.285156 -16.605469 C 3.65625 -16.605469 0.597656 -14.929688 0.597656 -11 Z M 0.597656 -11 "/></g></g></g><g fill="#000000" fill-opacity="1"><g transform="translate(115.060181, 122.619604)"><g><path d="M 9.773438 0.269531 C 15.046875 0.269531 17.625 -3.449219 17.625 -7.882812 C 17.625 -12.351562 14.957031 -16.425781 9.832031 -16.425781 C 8.273438 -16.425781 6.683594 -15.976562 5.574219 -14.597656 L 5.574219 -16.21875 L 0.898438 -16.21875 L 0.898438 4.734375 L 5.574219 4.734375 L 5.574219 -1.5 C 6.65625 -0.269531 8.183594 0.269531 9.773438 0.269531 Z M 9.261719 -11.902344 C 11.660156 -11.902344 12.890625 -9.953125 12.890625 -8.003906 C 12.890625 -6.054688 11.691406 -4.078125 9.261719 -4.078125 C 7.222656 -4.078125 5.574219 -5.84375 5.574219 -8.003906 C 5.574219 -10.160156 7.222656 -11.902344 9.261719 -11.902344 Z M 9.261719 -11.902344 "/></g></g></g><g fill="#000000" fill-opacity="1"><g transform="translate(134.542208, 122.619604)"><g><path d="M 17.417969 -8.09375 C 17.417969 -13.878906 13.101562 -16.757812 8.78125 -16.757812 C 4.4375 -16.757812 0.121094 -13.878906 0.121094 -8.09375 C 0.121094 -2.339844 4.464844 0.539062 8.78125 0.539062 C 13.101562 0.539062 17.417969 -2.339844 17.417969 -8.09375 Z M 4.855469 -8.09375 C 4.855469 -10.851562 6.804688 -12.230469 8.78125 -12.230469 C 10.941406 -12.230469 12.679688 -10.851562 12.679688 -8.09375 C 12.679688 -5.367188 10.730469 -4.015625 8.78125 -4.015625 C 6.804688 -4.015625 4.855469 -5.367188 4.855469 -8.09375 Z M 4.855469 -8.09375 "/></g></g></g><g fill="#000000" fill-opacity="1"><g transform="translate(153.514706, 122.619604)"><g><path d="M 5.335938 -15.136719 L 5.15625 -16.21875 L 0.898438 -16.21875 L 0.898438 0 L 5.605469 0 L 5.605469 -8.992188 C 5.605469 -11.179688 7.34375 -12.082031 9.054688 -12.109375 C 9.59375 -12.109375 10.160156 -12.019531 10.640625 -11.871094 L 10.703125 -16.308594 C 10.070312 -16.457031 9.441406 -16.546875 8.871094 -16.546875 C 7.554688 -16.546875 6.386719 -16.128906 5.335938 -15.136719 Z M 5.335938 -15.136719 "/></g></g></g><g fill="#000000" fill-opacity="1"><g transform="translate(165.80337, 122.619604)"><g><path d="M 10.792969 0.03125 L 10.640625 -3.867188 C 10.222656 -3.777344 9.742188 -3.71875 9.292969 -3.71875 C 8.152344 -3.71875 7.105469 -4.167969 7.105469 -5.605469 L 7.105469 -11.992188 L 10.492188 -11.992188 L 10.492188 -16.039062 L 7.105469 -16.039062 L 7.105469 -19.542969 L 2.398438 -19.125 L 2.398438 -16.039062 L 0.269531 -16.039062 L 0.269531 -11.992188 L 2.398438 -11.992188 L 2.398438 -5.605469 C 2.398438 -1.410156 4.554688 0.269531 8.125 0.269531 C 8.933594 0.269531 9.832031 0.179688 10.792969 0.03125 Z M 10.792969 0.03125 "/></g></g></g></svg>