<svg xmlns="http://www.w3.org/2000/svg" xmlns:xlink="http://www.w3.org/1999/xlink" width="300" zoomAndPan="magnify" viewBox="0 0 224.87999 225" height="300" preserveAspectRatio="xMidYMid meet" version="1.0"><defs><g/><clipPath id="id1"><path d="M 0 0.0585938 L 224.761719 0.0585938 L 224.761719 224.9375 L 0 224.9375 Z M 0 0.0585938 " clip-rule="nonzero"/></clipPath></defs><g clip-path="url(#id1)"><path fill="#ffffff" d="M 0 0.0585938 L 224.878906 0.0585938 L 224.878906 232.4375 L 0 232.4375 Z M 0 0.0585938 " fill-opacity="1" fill-rule="nonzero"/><path fill="#f8f9fb" d="M 0 0.0585938 L 224.878906 0.0585938 L 224.878906 224.941406 L 0 224.941406 Z M 0 0.0585938 " fill-opacity="1" fill-rule="nonzero"/><path fill="#ffffff" d="M 0 0.0585938 L 224.878906 0.0585938 L 224.878906 224.941406 L 0 224.941406 Z M 0 0.0585938 " fill-opacity="1" fill-rule="nonzero"/><path fill="#f8f9fb" d="M 0 0.0585938 L 224.878906 0.0585938 L 224.878906 224.941406 L 0 224.941406 Z M 0 0.0585938 " fill-opacity="1" fill-rule="nonzero"/></g><g fill="#000000" fill-opacity="1"><g transform="translate(37.655684, 102.005606)"><g><path d="M 9.980469 -21.164062 L 1.5 -21.164062 L 1.5 0 L 6.625 0 L 6.625 -6.234375 L 9.980469 -6.234375 C 14.898438 -6.234375 17.355469 -9.980469 17.355469 -13.667969 C 17.355469 -17.355469 14.898438 -21.164062 9.980469 -21.164062 Z M 9.980469 -11.0625 L 6.625 -11.0625 L 6.625 -16.1875 L 9.980469 -16.1875 C 11.570312 -16.1875 12.351562 -14.839844 12.351562 -13.578125 C 12.351562 -12.351562 11.570312 -11.0625 9.980469 -11.0625 Z M 9.980469 -11.0625 "/></g></g></g><g fill="#000000" fill-opacity="1"><g transform="translate(55.938815, 102.005606)"><g><path d="M 5.335938 -15.136719 L 5.15625 -16.21875 L 0.898438 -16.21875 L 0.898438 0 L 5.605469 0 L 5.605469 -8.992188 C 5.605469 -11.179688 7.34375 -12.082031 9.054688 -12.109375 C 9.59375 -12.109375 10.160156 -12.019531 10.640625 -11.871094 L 10.703125 -16.308594 C 10.070312 -16.457031 9.441406 -16.546875 8.871094 -16.546875 C 7.554688 -16.546875 6.386719 -16.128906 5.335938 -15.136719 Z M 5.335938 -15.136719 "/></g></g></g><g fill="#000000" fill-opacity="1"><g transform="translate(68.22748, 102.005606)"><g><path d="M 8.273438 -16.488281 C 2.996094 -16.488281 0.417969 -12.769531 0.417969 -8.332031 C 0.417969 -3.867188 3.085938 0.210938 8.214844 0.210938 C 9.773438 0.210938 11.359375 -0.238281 12.46875 -1.617188 L 12.46875 0 L 17.175781 0 L 17.175781 -16.21875 L 12.46875 -16.21875 L 12.46875 -14.539062 C 11.421875 -15.886719 9.863281 -16.488281 8.273438 -16.488281 Z M 8.78125 -4.316406 C 6.386719 -4.316406 5.15625 -6.265625 5.15625 -8.214844 C 5.15625 -10.191406 6.355469 -12.140625 8.78125 -12.140625 C 10.820312 -12.140625 12.46875 -10.371094 12.46875 -8.214844 C 12.46875 -6.054688 10.820312 -4.316406 8.78125 -4.316406 Z M 8.78125 -4.316406 "/></g></g></g><g fill="#000000" fill-opacity="1"><g transform="translate(87.499699, 102.005606)"><g><path d="M 16.726562 -6.894531 L 12.050781 -6.894531 C 11.511719 -5.097656 10.042969 -4.257812 8.601562 -4.257812 C 6.804688 -4.257812 5.007812 -5.574219 5.007812 -8.125 C 5.007812 -10.671875 6.804688 -11.992188 8.601562 -11.992188 C 10.042969 -11.992188 11.511719 -11.121094 12.050781 -9.324219 L 16.726562 -9.324219 C 16.097656 -14.089844 12.351562 -16.425781 8.601562 -16.425781 C 4.496094 -16.425781 0.390625 -13.609375 0.390625 -8.125 C 0.390625 -2.636719 4.496094 0.179688 8.601562 0.179688 C 12.351562 0.179688 16.097656 -2.160156 16.726562 -6.894531 Z M 16.726562 -6.894531 "/></g></g></g><g fill="#000000" fill-opacity="1"><g transform="translate(105.902723, 102.005606)"><g><path d="M 10.792969 0.03125 L 10.640625 -3.867188 C 10.222656 -3.777344 9.742188 -3.71875 9.292969 -3.71875 C 8.152344 -3.71875 7.105469 -4.167969 7.105469 -5.605469 L 7.105469 -11.992188 L 10.492188 -11.992188 L 10.492188 -16.039062 L 7.105469 -16.039062 L 7.105469 -19.542969 L 2.398438 -19.125 L 2.398438 -16.039062 L 0.269531 -16.039062 L 0.269531 -11.992188 L 2.398438 -11.992188 L 2.398438 -5.605469 C 2.398438 -1.410156 4.554688 0.269531 8.125 0.269531 C 8.933594 0.269531 9.832031 0.179688 10.792969 0.03125 Z M 10.792969 0.03125 "/></g></g></g><g fill="#000000" fill-opacity="1"><g transform="translate(118.341248, 102.005606)"><g><path d="M 0.660156 -19.785156 C 0.660156 -18.015625 2.097656 -17.148438 3.539062 -17.148438 C 4.917969 -17.148438 6.324219 -18.015625 6.324219 -19.785156 C 6.324219 -21.644531 4.886719 -22.542969 3.449219 -22.542969 C 2.070312 -22.542969 0.660156 -21.613281 0.660156 -19.785156 Z M 1.109375 -16.21875 L 5.90625 -16.21875 L 5.90625 0 L 1.109375 0 Z M 1.109375 -16.21875 "/></g></g></g><g fill="#000000" fill-opacity="1"><g transform="translate(126.373838, 102.005606)"><g><path d="M 0.597656 -11 C 0.597656 -7.433594 3.777344 -6.265625 6.835938 -5.996094 C 7.613281 -5.933594 9.414062 -6.085938 9.414062 -4.917969 C 9.414062 -4.375 8.632812 -3.925781 7.464844 -3.925781 C 6.355469 -3.925781 5.125 -4.347656 5.097656 -5.457031 L 0.359375 -5.457031 C 0.417969 -1.320312 3.355469 0.417969 7.222656 0.417969 C 10.820312 0.417969 14.148438 -0.960938 14.148438 -5.035156 C 14.148438 -8.871094 10.703125 -10.3125 7.3125 -10.402344 C 6.625 -10.433594 5.367188 -10.460938 5.367188 -11.300781 C 5.367188 -12.171875 6.324219 -12.410156 7.015625 -12.410156 C 8.003906 -12.410156 9.261719 -12.320312 9.292969 -11.0625 L 13.820312 -11.0625 C 13.789062 -14.839844 10.761719 -16.605469 7.285156 -16.605469 C 3.65625 -16.605469 0.597656 -14.929688 0.597656 -11 Z M 0.597656 -11 "/></g></g></g><g fill="#000000" fill-opacity="1"><g transform="translate(141.809596, 102.005606)"><g><path d="M 0.660156 -19.785156 C 0.660156 -18.015625 2.097656 -17.148438 3.539062 -17.148438 C 4.917969 -17.148438 6.324219 -18.015625 6.324219 -19.785156 C 6.324219 -21.644531 4.886719 -22.542969 3.449219 -22.542969 C 2.070312 -22.542969 0.660156 -21.613281 0.660156 -19.785156 Z M 1.109375 -16.21875 L 5.90625 -16.21875 L 5.90625 0 L 1.109375 0 Z M 1.109375 -16.21875 "/></g></g></g><g fill="#000000" fill-opacity="1"><g transform="translate(149.842186, 102.005606)"><g><path d="M 5.457031 -14.597656 L 5.457031 -16.21875 L 0.691406 -16.21875 L 0.691406 0 L 5.695312 0 L 5.695312 -8.8125 C 5.695312 -10.882812 7.375 -12.082031 8.78125 -12.082031 C 10.070312 -12.082031 11.300781 -11.089844 11.300781 -8.902344 L 11.300781 0 L 16.097656 0 L 16.097656 -8.933594 C 16.128906 -12.980469 14.867188 -16.398438 10.253906 -16.457031 C 8.511719 -16.457031 6.59375 -16.039062 5.457031 -14.597656 Z M 5.457031 -14.597656 "/></g></g></g><g fill="#000000" fill-opacity="1"><g transform="translate(168.035403, 102.005606)"><g><path d="M 8.183594 -0.0585938 C 9.800781 -0.0585938 11.332031 -0.507812 12.378906 -1.738281 L 12.378906 -0.898438 C 12.230469 2.007812 10.34375 2.90625 8.601562 2.90625 C 7.132812 2.90625 5.785156 2.097656 5.785156 1.140625 L 0.839844 1.140625 C 0.839844 5.066406 4.828125 7.492188 8.84375 7.492188 C 12.949219 7.492188 17.085938 5.066406 17.085938 -0.929688 L 17.085938 -16.21875 L 12.378906 -16.21875 L 12.378906 -14.597656 C 11.300781 -16.007812 9.683594 -16.398438 8.09375 -16.398438 C 2.96875 -16.398438 0.359375 -12.621094 0.359375 -7.972656 C 0.359375 -3.507812 2.96875 -0.0585938 8.183594 -0.0585938 Z M 8.722656 -11.902344 C 10.730469 -11.902344 12.378906 -10.132812 12.378906 -7.972656 C 12.378906 -5.726562 10.550781 -4.554688 8.722656 -4.527344 C 6.894531 -4.527344 5.097656 -5.664062 5.097656 -7.972656 C 5.097656 -9.921875 6.296875 -11.902344 8.722656 -11.902344 Z M 8.722656 -11.902344 "/></g></g></g><g fill="#000000" fill-opacity="1"><g transform="translate(29.99571, 143.233603)"><g><path d="M 6.144531 -10.460938 C 6.144531 -14.449219 9.023438 -16.425781 11.902344 -16.425781 C 14.296875 -16.425781 16.726562 -15.046875 17.417969 -12.261719 L 22.601562 -12.261719 C 21.941406 -17.65625 17.296875 -21.3125 11.902344 -21.3125 C 5.90625 -21.3125 1.050781 -16.636719 1.050781 -10.460938 C 1.050781 -4.285156 5.90625 0.300781 11.902344 0.300781 C 17.355469 0.300781 21.851562 -3.328125 22.632812 -8.8125 L 17.445312 -8.8125 C 16.785156 -5.964844 14.359375 -4.527344 11.902344 -4.527344 C 9.023438 -4.527344 6.144531 -6.503906 6.144531 -10.460938 Z M 6.144531 -10.460938 "/></g></g></g><g fill="#000000" fill-opacity="1"><g transform="translate(53.583951, 143.233603)"><g><path d="M 17.148438 -8.152344 C 17.148438 -13.699219 12.949219 -16.457031 8.78125 -16.457031 C 4.554688 -16.457031 0.390625 -13.699219 0.390625 -8.152344 C 0.390625 -2.609375 4.554688 0.179688 8.753906 0.179688 C 12.109375 0.179688 15.4375 -1.589844 16.667969 -5.125 L 11.539062 -5.125 C 10.851562 -4.375 9.863281 -4.015625 8.8125 -4.015625 C 7.375 -4.046875 5.90625 -4.796875 5.335938 -6.296875 L 16.964844 -6.296875 C 17.085938 -6.894531 17.148438 -7.492188 17.148438 -8.152344 Z M 11.992188 -9.980469 L 5.515625 -9.980469 C 5.996094 -11.570312 7.285156 -12.351562 8.691406 -12.351562 C 10.222656 -12.351562 11.539062 -11.601562 11.992188 -9.980469 Z M 11.992188 -9.980469 "/></g></g></g><g fill="#000000" fill-opacity="1"><g transform="translate(72.766256, 143.233603)"><g><path d="M 5.335938 -15.136719 L 5.15625 -16.21875 L 0.898438 -16.21875 L 0.898438 0 L 5.605469 0 L 5.605469 -8.992188 C 5.605469 -11.179688 7.34375 -12.082031 9.054688 -12.109375 C 9.59375 -12.109375 10.160156 -12.019531 10.640625 -11.871094 L 10.703125 -16.308594 C 10.070312 -16.457031 9.441406 -16.546875 8.871094 -16.546875 C 7.554688 -16.546875 6.386719 -16.128906 5.335938 -15.136719 Z M 5.335938 -15.136719 "/></g></g></g><g fill="#000000" fill-opacity="1"><g transform="translate(85.05492, 143.233603)"><g><path d="M 10.792969 0.03125 L 10.640625 -3.867188 C 10.222656 -3.777344 9.742188 -3.71875 9.292969 -3.71875 C 8.152344 -3.71875 7.105469 -4.167969 7.105469 -5.605469 L 7.105469 -11.992188 L 10.492188 -11.992188 L 10.492188 -16.039062 L 7.105469 -16.039062 L 7.105469 -19.542969 L 2.398438 -19.125 L 2.398438 -16.039062 L 0.269531 -16.039062 L 0.269531 -11.992188 L 2.398438 -11.992188 L 2.398438 -5.605469 C 2.398438 -1.410156 4.554688 0.269531 8.125 0.269531 C 8.933594 0.269531 9.832031 0.179688 10.792969 0.03125 Z M 10.792969 0.03125 "/></g></g></g><g fill="#000000" fill-opacity="1"><g transform="translate(97.493446, 143.233603)"><g><path d="M 0.660156 -19.785156 C 0.660156 -18.015625 2.097656 -17.148438 3.539062 -17.148438 C 4.917969 -17.148438 6.324219 -18.015625 6.324219 -19.785156 C 6.324219 -21.644531 4.886719 -22.542969 3.449219 -22.542969 C 2.070312 -22.542969 0.660156 -21.613281 0.660156 -19.785156 Z M 1.109375 -16.21875 L 5.90625 -16.21875 L 5.90625 0 L 1.109375 0 Z M 1.109375 -16.21875 "/></g></g></g><g fill="#000000" fill-opacity="1"><g transform="translate(105.526035, 143.233603)"><g><path d="M 2.398438 -16.039062 L -0.0898438 -16.039062 L -0.0898438 -11.929688 L 2.339844 -11.929688 L 2.339844 0 L 7.042969 0 L 7.042969 -11.929688 L 10.460938 -11.929688 L 10.460938 -16.039062 L 7.105469 -16.039062 C 7.042969 -17.445312 8.035156 -17.867188 9.144531 -17.867188 C 9.59375 -17.867188 10.070312 -17.804688 10.492188 -17.6875 L 10.640625 -21.222656 C 9.832031 -21.402344 8.992188 -21.492188 8.183594 -21.492188 C 5.007812 -21.492188 2.128906 -20.054688 2.398438 -16.039062 Z M 2.398438 -16.039062 "/></g></g></g><g fill="#000000" fill-opacity="1"><g transform="translate(117.544946, 143.233603)"><g><path d="M 0.660156 -19.785156 C 0.660156 -18.015625 2.097656 -17.148438 3.539062 -17.148438 C 4.917969 -17.148438 6.324219 -18.015625 6.324219 -19.785156 C 6.324219 -21.644531 4.886719 -22.542969 3.449219 -22.542969 C 2.070312 -22.542969 0.660156 -21.613281 0.660156 -19.785156 Z M 1.109375 -16.21875 L 5.90625 -16.21875 L 5.90625 0 L 1.109375 0 Z M 1.109375 -16.21875 "/></g></g></g><g fill="#000000" fill-opacity="1"><g transform="translate(125.577536, 143.233603)"><g><path d="M 16.726562 -6.894531 L 12.050781 -6.894531 C 11.511719 -5.097656 10.042969 -4.257812 8.601562 -4.257812 C 6.804688 -4.257812 5.007812 -5.574219 5.007812 -8.125 C 5.007812 -10.671875 6.804688 -11.992188 8.601562 -11.992188 C 10.042969 -11.992188 11.511719 -11.121094 12.050781 -9.324219 L 16.726562 -9.324219 C 16.097656 -14.089844 12.351562 -16.425781 8.601562 -16.425781 C 4.496094 -16.425781 0.390625 -13.609375 0.390625 -8.125 C 0.390625 -2.636719 4.496094 0.179688 8.601562 0.179688 C 12.351562 0.179688 16.097656 -2.160156 16.726562 -6.894531 Z M 16.726562 -6.894531 "/></g></g></g><g fill="#000000" fill-opacity="1"><g transform="translate(143.98056, 143.233603)"><g><path d="M 8.273438 -16.488281 C 2.996094 -16.488281 0.417969 -12.769531 0.417969 -8.332031 C 0.417969 -3.867188 3.085938 0.210938 8.214844 0.210938 C 9.773438 0.210938 11.359375 -0.238281 12.46875 -1.617188 L 12.46875 0 L 17.175781 0 L 17.175781 -16.21875 L 12.46875 -16.21875 L 12.46875 -14.539062 C 11.421875 -15.886719 9.863281 -16.488281 8.273438 -16.488281 Z M 8.78125 -4.316406 C 6.386719 -4.316406 5.15625 -6.265625 5.15625 -8.214844 C 5.15625 -10.191406 6.355469 -12.140625 8.78125 -12.140625 C 10.820312 -12.140625 12.46875 -10.371094 12.46875 -8.214844 C 12.46875 -6.054688 10.820312 -4.316406 8.78125 -4.316406 Z M 8.78125 -4.316406 "/></g></g></g><g fill="#000000" fill-opacity="1"><g transform="translate(163.25278, 143.233603)"><g><path d="M 10.792969 0.03125 L 10.640625 -3.867188 C 10.222656 -3.777344 9.742188 -3.71875 9.292969 -3.71875 C 8.152344 -3.71875 7.105469 -4.167969 7.105469 -5.605469 L 7.105469 -11.992188 L 10.492188 -11.992188 L 10.492188 -16.039062 L 7.105469 -16.039062 L 7.105469 -19.542969 L 2.398438 -19.125 L 2.398438 -16.039062 L 0.269531 -16.039062 L 0.269531 -11.992188 L 2.398438 -11.992188 L 2.398438 -5.605469 C 2.398438 -1.410156 4.554688 0.269531 8.125 0.269531 C 8.933594 0.269531 9.832031 0.179688 10.792969 0.03125 Z M 10.792969 0.03125 "/></g></g></g><g fill="#000000" fill-opacity="1"><g transform="translate(175.691305, 143.233603)"><g><path d="M 17.148438 -8.152344 C 17.148438 -13.699219 12.949219 -16.457031 8.78125 -16.457031 C 4.554688 -16.457031 0.390625 -13.699219 0.390625 -8.152344 C 0.390625 -2.609375 4.554688 0.179688 8.753906 0.179688 C 12.109375 0.179688 15.4375 -1.589844 16.667969 -5.125 L 11.539062 -5.125 C 10.851562 -4.375 9.863281 -4.015625 8.8125 -4.015625 C 7.375 -4.046875 5.90625 -4.796875 5.335938 -6.296875 L 16.964844 -6.296875 C 17.085938 -6.894531 17.148438 -7.492188 17.148438 -8.152344 Z M 11.992188 -9.980469 L 5.515625 -9.980469 C 5.996094 -11.570312 7.285156 -12.351562 8.691406 -12.351562 C 10.222656 -12.351562 11.539062 -11.601562 11.992188 -9.980469 Z M 11.992188 -9.980469 "/></g></g></g></svg>