<svg xmlns="http://www.w3.org/2000/svg" xmlns:xlink="http://www.w3.org/1999/xlink" width="300" zoomAndPan="magnify" viewBox="0 0 224.87999 225" height="300" preserveAspectRatio="xMidYMid meet" version="1.0"><defs><g/><clipPath id="id1"><path d="M 0 0.0585938 L 224.761719 0.0585938 L 224.761719 224.9375 L 0 224.9375 Z M 0 0.0585938 " clip-rule="nonzero"/></clipPath></defs><g clip-path="url(#id1)"><path fill="#ffffff" d="M 0 0.0585938 L 224.878906 0.0585938 L 224.878906 232.4375 L 0 232.4375 Z M 0 0.0585938 " fill-opacity="1" fill-rule="nonzero"/><path fill="#f8f9fb" d="M 0 0.0585938 L 224.878906 0.0585938 L 224.878906 224.941406 L 0 224.941406 Z M 0 0.0585938 " fill-opacity="1" fill-rule="nonzero"/><path fill="#ffffff" d="M 0 0.0585938 L 224.878906 0.0585938 L 224.878906 224.941406 L 0 224.941406 Z M 0 0.0585938 " fill-opacity="1" fill-rule="nonzero"/><path fill="#f8f9fb" d="M 0 0.0585938 L 224.878906 0.0585938 L 224.878906 224.941406 L 0 224.941406 Z M 0 0.0585938 " fill-opacity="1" fill-rule="nonzero"/></g><g fill="#000000" fill-opacity="1"><g transform="translate(66.983782, 102.005606)"><g><path d="M 11.902344 -14.359375 L 17.054688 -14.359375 C 17.054688 -19.183594 13.011719 -21.285156 9.261719 -21.285156 C 4.796875 -21.285156 1.019531 -18.527344 1.257812 -13.910156 L 1.257812 -13.9375 C 1.648438 -9.113281 5.664062 -8.363281 9.054688 -8.035156 C 9.832031 -7.945312 12.230469 -7.882812 12.230469 -6.386719 C 12.230469 -5.1875 10.882812 -4.707031 9.203125 -4.707031 C 8.035156 -4.707031 6.296875 -5.097656 6.296875 -7.164062 L 1.109375 -7.164062 C 1.109375 -1.828125 5.753906 0.269531 9.171875 0.269531 C 13.160156 0.269531 17.417969 -2.25 17.417969 -6.625 C 17.417969 -7.074219 17.355469 -7.613281 17.265625 -8.09375 C 16.367188 -11.871094 12.621094 -12.648438 9.652344 -13.039062 C 8.964844 -13.101562 6.476562 -13.128906 6.476562 -14.6875 C 6.476562 -15.828125 7.585938 -16.515625 9.171875 -16.515625 C 10.761719 -16.515625 11.902344 -15.769531 11.902344 -14.359375 Z M 11.902344 -14.359375 "/></g></g></g><g fill="#000000" fill-opacity="1"><g transform="translate(85.746473, 102.005606)"><g><path d="M 17.417969 -8.09375 C 17.417969 -13.878906 13.101562 -16.757812 8.78125 -16.757812 C 4.4375 -16.757812 0.121094 -13.878906 0.121094 -8.09375 C 0.121094 -2.339844 4.464844 0.539062 8.78125 0.539062 C 13.101562 0.539062 17.417969 -2.339844 17.417969 -8.09375 Z M 4.855469 -8.09375 C 4.855469 -10.851562 6.804688 -12.230469 8.78125 -12.230469 C 10.941406 -12.230469 12.679688 -10.851562 12.679688 -8.09375 C 12.679688 -5.367188 10.730469 -4.015625 8.78125 -4.015625 C 6.804688 -4.015625 4.855469 -5.367188 4.855469 -8.09375 Z M 4.855469 -8.09375 "/></g></g></g><g fill="#000000" fill-opacity="1"><g transform="translate(104.718971, 102.005606)"><g><path d="M 16.726562 -6.894531 L 12.050781 -6.894531 C 11.511719 -5.097656 10.042969 -4.257812 8.601562 -4.257812 C 6.804688 -4.257812 5.007812 -5.574219 5.007812 -8.125 C 5.007812 -10.671875 6.804688 -11.992188 8.601562 -11.992188 C 10.042969 -11.992188 11.511719 -11.121094 12.050781 -9.324219 L 16.726562 -9.324219 C 16.097656 -14.089844 12.351562 -16.425781 8.601562 -16.425781 C 4.496094 -16.425781 0.390625 -13.609375 0.390625 -8.125 C 0.390625 -2.636719 4.496094 0.179688 8.601562 0.179688 C 12.351562 0.179688 16.097656 -2.160156 16.726562 -6.894531 Z M 16.726562 -6.894531 "/></g></g></g><g fill="#000000" fill-opacity="1"><g transform="translate(123.121995, 102.005606)"><g><path d="M 0.660156 -19.785156 C 0.660156 -18.015625 2.097656 -17.148438 3.539062 -17.148438 C 4.917969 -17.148438 6.324219 -18.015625 6.324219 -19.785156 C 6.324219 -21.644531 4.886719 -22.542969 3.449219 -22.542969 C 2.070312 -22.542969 0.660156 -21.613281 0.660156 -19.785156 Z M 1.109375 -16.21875 L 5.90625 -16.21875 L 5.90625 0 L 1.109375 0 Z M 1.109375 -16.21875 "/></g></g></g><g fill="#000000" fill-opacity="1"><g transform="translate(131.154584, 102.005606)"><g><path d="M 8.273438 -16.488281 C 2.996094 -16.488281 0.417969 -12.769531 0.417969 -8.332031 C 0.417969 -3.867188 3.085938 0.210938 8.214844 0.210938 C 9.773438 0.210938 11.359375 -0.238281 12.46875 -1.617188 L 12.46875 0 L 17.175781 0 L 17.175781 -16.21875 L 12.46875 -16.21875 L 12.46875 -14.539062 C 11.421875 -15.886719 9.863281 -16.488281 8.273438 -16.488281 Z M 8.78125 -4.316406 C 6.386719 -4.316406 5.15625 -6.265625 5.15625 -8.214844 C 5.15625 -10.191406 6.355469 -12.140625 8.78125 -12.140625 C 10.820312 -12.140625 12.46875 -10.371094 12.46875 -8.214844 C 12.46875 -6.054688 10.820312 -4.316406 8.78125 -4.316406 Z M 8.78125 -4.316406 "/></g></g></g><g fill="#000000" fill-opacity="1"><g transform="translate(150.426804, 102.005606)"><g><path d="M 5.515625 -20.984375 L 0.71875 -20.984375 L 0.71875 0 L 5.515625 0 Z M 5.515625 -20.984375 "/></g></g></g><g fill="#000000" fill-opacity="1"><g transform="translate(35.652847, 143.233603)"><g><path d="M 13.371094 0 L 13.371094 -4.585938 L 9.890625 -4.585938 L 9.890625 -16.425781 L 13.371094 -16.425781 L 13.371094 -21.101562 L 1.289062 -21.101562 L 1.289062 -16.425781 L 4.765625 -16.425781 L 4.765625 -4.585938 L 1.289062 -4.585938 L 1.289062 0 Z M 13.371094 0 "/></g></g></g><g fill="#000000" fill-opacity="1"><g transform="translate(50.159463, 143.233603)"><g><path d="M 5.457031 -14.597656 L 5.457031 -16.21875 L 0.691406 -16.21875 L 0.691406 0 L 5.695312 0 L 5.695312 -8.8125 C 5.695312 -10.882812 7.375 -12.082031 8.78125 -12.082031 C 10.070312 -12.082031 11.300781 -11.089844 11.300781 -8.902344 L 11.300781 0 L 16.097656 0 L 16.097656 -8.933594 C 16.128906 -12.980469 14.867188 -16.398438 10.253906 -16.457031 C 8.511719 -16.457031 6.59375 -16.039062 5.457031 -14.597656 Z M 5.457031 -14.597656 "/></g></g></g><g fill="#000000" fill-opacity="1"><g transform="translate(68.35268, 143.233603)"><g><path d="M 0.597656 -11 C 0.597656 -7.433594 3.777344 -6.265625 6.835938 -5.996094 C 7.613281 -5.933594 9.414062 -6.085938 9.414062 -4.917969 C 9.414062 -4.375 8.632812 -3.925781 7.464844 -3.925781 C 6.355469 -3.925781 5.125 -4.347656 5.097656 -5.457031 L 0.359375 -5.457031 C 0.417969 -1.320312 3.355469 0.417969 7.222656 0.417969 C 10.820312 0.417969 14.148438 -0.960938 14.148438 -5.035156 C 14.148438 -8.871094 10.703125 -10.3125 7.3125 -10.402344 C 6.625 -10.433594 5.367188 -10.460938 5.367188 -11.300781 C 5.367188 -12.171875 6.324219 -12.410156 7.015625 -12.410156 C 8.003906 -12.410156 9.261719 -12.320312 9.292969 -11.0625 L 13.820312 -11.0625 C 13.789062 -14.839844 10.761719 -16.605469 7.285156 -16.605469 C 3.65625 -16.605469 0.597656 -14.929688 0.597656 -11 Z M 0.597656 -11 "/></g></g></g><g fill="#000000" fill-opacity="1"><g transform="translate(83.788438, 143.233603)"><g><path d="M 11.242188 -1.648438 L 11.242188 0 L 16.007812 0 L 16.007812 -16.21875 L 11 -16.21875 L 11 -7.402344 C 11 -5.246094 9.53125 -4.046875 8.125 -4.046875 C 6.835938 -4.046875 5.574219 -5.066406 5.574219 -7.3125 L 5.574219 -16.21875 L 0.808594 -16.21875 L 0.808594 -7.285156 C 0.78125 -3.207031 2.070312 0.210938 6.835938 0.210938 C 8.511719 0.210938 10.132812 -0.238281 11.242188 -1.648438 Z M 11.242188 -1.648438 "/></g></g></g><g fill="#000000" fill-opacity="1"><g transform="translate(101.891741, 143.233603)"><g><path d="M 5.335938 -15.136719 L 5.15625 -16.21875 L 0.898438 -16.21875 L 0.898438 0 L 5.605469 0 L 5.605469 -8.992188 C 5.605469 -11.179688 7.34375 -12.082031 9.054688 -12.109375 C 9.59375 -12.109375 10.160156 -12.019531 10.640625 -11.871094 L 10.703125 -16.308594 C 10.070312 -16.457031 9.441406 -16.546875 8.871094 -16.546875 C 7.554688 -16.546875 6.386719 -16.128906 5.335938 -15.136719 Z M 5.335938 -15.136719 "/></g></g></g><g fill="#000000" fill-opacity="1"><g transform="translate(114.180406, 143.233603)"><g><path d="M 8.273438 -16.488281 C 2.996094 -16.488281 0.417969 -12.769531 0.417969 -8.332031 C 0.417969 -3.867188 3.085938 0.210938 8.214844 0.210938 C 9.773438 0.210938 11.359375 -0.238281 12.46875 -1.617188 L 12.46875 0 L 17.175781 0 L 17.175781 -16.21875 L 12.46875 -16.21875 L 12.46875 -14.539062 C 11.421875 -15.886719 9.863281 -16.488281 8.273438 -16.488281 Z M 8.78125 -4.316406 C 6.386719 -4.316406 5.15625 -6.265625 5.15625 -8.214844 C 5.15625 -10.191406 6.355469 -12.140625 8.78125 -12.140625 C 10.820312 -12.140625 12.46875 -10.371094 12.46875 -8.214844 C 12.46875 -6.054688 10.820312 -4.316406 8.78125 -4.316406 Z M 8.78125 -4.316406 "/></g></g></g><g fill="#000000" fill-opacity="1"><g transform="translate(133.452626, 143.233603)"><g><path d="M 5.457031 -14.597656 L 5.457031 -16.21875 L 0.691406 -16.21875 L 0.691406 0 L 5.695312 0 L 5.695312 -8.8125 C 5.695312 -10.882812 7.375 -12.082031 8.78125 -12.082031 C 10.070312 -12.082031 11.300781 -11.089844 11.300781 -8.902344 L 11.300781 0 L 16.097656 0 L 16.097656 -8.933594 C 16.128906 -12.980469 14.867188 -16.398438 10.253906 -16.457031 C 8.511719 -16.457031 6.59375 -16.039062 5.457031 -14.597656 Z M 5.457031 -14.597656 "/></g></g></g><g fill="#000000" fill-opacity="1"><g transform="translate(151.645843, 143.233603)"><g><path d="M 16.726562 -6.894531 L 12.050781 -6.894531 C 11.511719 -5.097656 10.042969 -4.257812 8.601562 -4.257812 C 6.804688 -4.257812 5.007812 -5.574219 5.007812 -8.125 C 5.007812 -10.671875 6.804688 -11.992188 8.601562 -11.992188 C 10.042969 -11.992188 11.511719 -11.121094 12.050781 -9.324219 L 16.726562 -9.324219 C 16.097656 -14.089844 12.351562 -16.425781 8.601562 -16.425781 C 4.496094 -16.425781 0.390625 -13.609375 0.390625 -8.125 C 0.390625 -2.636719 4.496094 0.179688 8.601562 0.179688 C 12.351562 0.179688 16.097656 -2.160156 16.726562 -6.894531 Z M 16.726562 -6.894531 "/></g></g></g><g fill="#000000" fill-opacity="1"><g transform="translate(170.048867, 143.233603)"><g><path d="M 17.148438 -8.152344 C 17.148438 -13.699219 12.949219 -16.457031 8.78125 -16.457031 C 4.554688 -16.457031 0.390625 -13.699219 0.390625 -8.152344 C 0.390625 -2.609375 4.554688 0.179688 8.753906 0.179688 C 12.109375 0.179688 15.4375 -1.589844 16.667969 -5.125 L 11.539062 -5.125 C 10.851562 -4.375 9.863281 -4.015625 8.8125 -4.015625 C 7.375 -4.046875 5.90625 -4.796875 5.335938 -6.296875 L 16.964844 -6.296875 C 17.085938 -6.894531 17.148438 -7.492188 17.148438 -8.152344 Z M 11.992188 -9.980469 L 5.515625 -9.980469 C 5.996094 -11.570312 7.285156 -12.351562 8.691406 -12.351562 C 10.222656 -12.351562 11.539062 -11.601562 11.992188 -9.980469 Z M 11.992188 -9.980469 "/></g></g></g></svg>