<svg xmlns="http://www.w3.org/2000/svg" xmlns:xlink="http://www.w3.org/1999/xlink" width="300" zoomAndPan="magnify" viewBox="0 0 224.87999 225" height="300" preserveAspectRatio="xMidYMid meet" version="1.0"><defs><g/><clipPath id="id1"><path d="M 0 0.0585938 L 224.761719 0.0585938 L 224.761719 224.9375 L 0 224.9375 Z M 0 0.0585938 " clip-rule="nonzero"/></clipPath></defs><g clip-path="url(#id1)"><path fill="#ffffff" d="M 0 0.0585938 L 224.878906 0.0585938 L 224.878906 232.4375 L 0 232.4375 Z M 0 0.0585938 " fill-opacity="1" fill-rule="nonzero"/><path fill="#f8f9fb" d="M 0 0.0585938 L 224.878906 0.0585938 L 224.878906 224.941406 L 0 224.941406 Z M 0 0.0585938 " fill-opacity="1" fill-rule="nonzero"/><path fill="#ffffff" d="M 0 0.0585938 L 224.878906 0.0585938 L 224.878906 224.941406 L 0 224.941406 Z M 0 0.0585938 " fill-opacity="1" fill-rule="nonzero"/><path fill="#f8f9fb" d="M 0 0.0585938 L 224.878906 0.0585938 L 224.878906 224.941406 L 0 224.941406 Z M 0 0.0585938 " fill-opacity="1" fill-rule="nonzero"/></g><g fill="#000000" fill-opacity="1"><g transform="translate(21.228904, 122.619604)"><g><path d="M 21.582031 0.121094 L 28.386719 -20.355469 L 28.386719 -20.984375 L 23.261719 -20.984375 L 19.246094 -8.84375 L 16.636719 -16.1875 L 12.289062 -16.1875 L 9.652344 -8.84375 L 5.636719 -20.984375 L 0.507812 -20.984375 L 0.507812 -20.355469 L 7.3125 0.121094 L 11.839844 0.121094 L 14.417969 -7.164062 L 17.054688 0.121094 Z M 21.582031 0.121094 "/></g></g></g><g fill="#000000" fill-opacity="1"><g transform="translate(50.481923, 122.619604)"><g><path d="M 17.417969 -8.09375 C 17.417969 -13.878906 13.101562 -16.757812 8.78125 -16.757812 C 4.4375 -16.757812 0.121094 -13.878906 0.121094 -8.09375 C 0.121094 -2.339844 4.464844 0.539062 8.78125 0.539062 C 13.101562 0.539062 17.417969 -2.339844 17.417969 -8.09375 Z M 4.855469 -8.09375 C 4.855469 -10.851562 6.804688 -12.230469 8.78125 -12.230469 C 10.941406 -12.230469 12.679688 -10.851562 12.679688 -8.09375 C 12.679688 -5.367188 10.730469 -4.015625 8.78125 -4.015625 C 6.804688 -4.015625 4.855469 -5.367188 4.855469 -8.09375 Z M 4.855469 -8.09375 "/></g></g></g><g fill="#000000" fill-opacity="1"><g transform="translate(69.454421, 122.619604)"><g><path d="M 5.335938 -15.136719 L 5.15625 -16.21875 L 0.898438 -16.21875 L 0.898438 0 L 5.605469 0 L 5.605469 -8.992188 C 5.605469 -11.179688 7.34375 -12.082031 9.054688 -12.109375 C 9.59375 -12.109375 10.160156 -12.019531 10.640625 -11.871094 L 10.703125 -16.308594 C 10.070312 -16.457031 9.441406 -16.546875 8.871094 -16.546875 C 7.554688 -16.546875 6.386719 -16.128906 5.335938 -15.136719 Z M 5.335938 -15.136719 "/></g></g></g><g fill="#000000" fill-opacity="1"><g transform="translate(81.743085, 122.619604)"><g><path d="M 9.742188 -8.152344 L 15.226562 -15.976562 L 15.226562 -16.21875 L 10.070312 -16.21875 L 5.605469 -9.832031 L 5.605469 -20.984375 L 0.898438 -20.984375 L 0.898438 0 L 5.605469 0 L 5.605469 -6.324219 L 10.253906 0 L 15.769531 0 L 15.769531 -0.210938 Z M 9.742188 -8.152344 "/></g></g></g><g fill="#000000" fill-opacity="1"><g transform="translate(98.497632, 122.619604)"><g/></g></g><g fill="#000000" fill-opacity="1"><g transform="translate(106.020694, 122.619604)"><g><path d="M 9.980469 -21.164062 L 1.5 -21.164062 L 1.5 0 L 6.625 0 L 6.625 -6.234375 L 9.980469 -6.234375 C 14.898438 -6.234375 17.355469 -9.980469 17.355469 -13.667969 C 17.355469 -17.355469 14.898438 -21.164062 9.980469 -21.164062 Z M 9.980469 -11.0625 L 6.625 -11.0625 L 6.625 -16.1875 L 9.980469 -16.1875 C 11.570312 -16.1875 12.351562 -14.839844 12.351562 -13.578125 C 12.351562 -12.351562 11.570312 -11.0625 9.980469 -11.0625 Z M 9.980469 -11.0625 "/></g></g></g><g fill="#000000" fill-opacity="1"><g transform="translate(124.303824, 122.619604)"><g><path d="M 17.148438 -8.152344 C 17.148438 -13.699219 12.949219 -16.457031 8.78125 -16.457031 C 4.554688 -16.457031 0.390625 -13.699219 0.390625 -8.152344 C 0.390625 -2.609375 4.554688 0.179688 8.753906 0.179688 C 12.109375 0.179688 15.4375 -1.589844 16.667969 -5.125 L 11.539062 -5.125 C 10.851562 -4.375 9.863281 -4.015625 8.8125 -4.015625 C 7.375 -4.046875 5.90625 -4.796875 5.335938 -6.296875 L 16.964844 -6.296875 C 17.085938 -6.894531 17.148438 -7.492188 17.148438 -8.152344 Z M 11.992188 -9.980469 L 5.515625 -9.980469 C 5.996094 -11.570312 7.285156 -12.351562 8.691406 -12.351562 C 10.222656 -12.351562 11.539062 -11.601562 11.992188 -9.980469 Z M 11.992188 -9.980469 "/></g></g></g><g fill="#000000" fill-opacity="1"><g transform="translate(143.486129, 122.619604)"><g><path d="M 5.335938 -15.136719 L 5.15625 -16.21875 L 0.898438 -16.21875 L 0.898438 0 L 5.605469 0 L 5.605469 -8.992188 C 5.605469 -11.179688 7.34375 -12.082031 9.054688 -12.109375 C 9.59375 -12.109375 10.160156 -12.019531 10.640625 -11.871094 L 10.703125 -16.308594 C 10.070312 -16.457031 9.441406 -16.546875 8.871094 -16.546875 C 7.554688 -16.546875 6.386719 -16.128906 5.335938 -15.136719 Z M 5.335938 -15.136719 "/></g></g></g><g fill="#000000" fill-opacity="1"><g transform="translate(155.774794, 122.619604)"><g><path d="M 5.84375 -14.597656 L 5.84375 -16.21875 L 1.078125 -16.21875 L 1.078125 0 L 6.085938 0 L 6.085938 -9.171875 C 6.085938 -10.972656 7.554688 -11.8125 8.722656 -11.8125 C 9.832031 -11.8125 10.792969 -11.089844 10.792969 -9.113281 L 10.792969 0 L 15.558594 0 L 15.558594 -9.234375 C 15.585938 -11 17.265625 -11.8125 18.4375 -11.8125 C 19.542969 -11.8125 20.503906 -11.089844 20.503906 -9.113281 L 20.503906 0 L 25.269531 0 L 25.269531 -9.144531 C 25.332031 -14.449219 22.691406 -16.425781 19.484375 -16.425781 C 17.65625 -16.425781 15.496094 -15.738281 14.449219 -14.296875 C 13.667969 -15.558594 12.441406 -16.457031 10.492188 -16.457031 C 8.78125 -16.457031 6.953125 -16.007812 5.84375 -14.597656 Z M 5.84375 -14.597656 "/></g></g></g><g fill="#000000" fill-opacity="1"><g transform="translate(183.169529, 122.619604)"><g><path d="M 0.660156 -19.785156 C 0.660156 -18.015625 2.097656 -17.148438 3.539062 -17.148438 C 4.917969 -17.148438 6.324219 -18.015625 6.324219 -19.785156 C 6.324219 -21.644531 4.886719 -22.542969 3.449219 -22.542969 C 2.070312 -22.542969 0.660156 -21.613281 0.660156 -19.785156 Z M 1.109375 -16.21875 L 5.90625 -16.21875 L 5.90625 0 L 1.109375 0 Z M 1.109375 -16.21875 "/></g></g></g><g fill="#000000" fill-opacity="1"><g transform="translate(191.202118, 122.619604)"><g><path d="M 10.792969 0.03125 L 10.640625 -3.867188 C 10.222656 -3.777344 9.742188 -3.71875 9.292969 -3.71875 C 8.152344 -3.71875 7.105469 -4.167969 7.105469 -5.605469 L 7.105469 -11.992188 L 10.492188 -11.992188 L 10.492188 -16.039062 L 7.105469 -16.039062 L 7.105469 -19.542969 L 2.398438 -19.125 L 2.398438 -16.039062 L 0.269531 -16.039062 L 0.269531 -11.992188 L 2.398438 -11.992188 L 2.398438 -5.605469 C 2.398438 -1.410156 4.554688 0.269531 8.125 0.269531 C 8.933594 0.269531 9.832031 0.179688 10.792969 0.03125 Z M 10.792969 0.03125 "/></g></g></g></svg>